<svg width="33" height="44" viewBox="0 0 33 44" fill="none" xmlns="http://www.w3.org/2000/svg">
<g clip-path="url(#clip0_2027_11145)">
<path d="M10.9955 34.0063C10.9955 34.0063 9.34214 34.9678 12.1721 35.2932C15.6006 35.6843 17.3528 35.6282 21.131 34.9131C21.131 34.9131 22.1244 35.536 23.5116 36.0754C15.0419 39.7054 4.343 35.8652 10.9955 34.0063Z" fill="#5382A1"/>
<path d="M9.96061 29.2695C9.96061 29.2695 8.10621 30.6422 10.9383 30.9351C14.6007 31.313 17.493 31.3439 22.4977 30.3802C22.4977 30.3802 23.1899 31.082 24.2784 31.4657C14.038 34.4602 2.6321 31.7019 9.96061 29.2695Z" fill="#5382A1"/>
<path d="M18.6855 21.2344C20.7725 23.6371 18.1372 25.7992 18.1372 25.7992C18.1372 25.7992 23.4363 23.0637 21.0026 19.6382C18.7297 16.4436 16.9867 14.8564 26.4228 9.38379C26.4228 9.38379 11.6112 13.083 18.6855 21.2344Z" fill="#E76F00"/>
<path d="M29.8873 37.51C29.8873 37.51 31.1109 38.5181 28.5399 39.298C23.651 40.779 8.19207 41.2262 3.89763 39.357C2.35389 38.6855 5.24884 37.7535 6.15948 37.5579C7.10919 37.352 7.65191 37.3903 7.65191 37.3903C5.93511 36.1809 -3.44476 39.7651 2.8874 40.7915C20.1561 43.592 34.3666 39.5304 29.8873 37.51Z" fill="#5382A1"/>
<path d="M11.7906 24.3615C11.7906 24.3615 3.92715 26.2292 9.00594 26.9075C11.1504 27.1946 15.4252 27.1296 19.4071 26.796C22.6614 26.5215 25.929 25.9378 25.929 25.9378C25.929 25.9378 24.7815 26.4292 23.9513 26.9961C15.9662 29.0962 0.54032 28.1192 4.98123 25.971C8.73691 24.1556 11.7906 24.3615 11.7906 24.3615Z" fill="#5382A1"/>
<path d="M25.8966 32.2461C34.0139 28.0281 30.2608 23.9745 27.6412 24.5206C26.9991 24.6543 26.7128 24.7701 26.7128 24.7701C26.7128 24.7701 26.9511 24.3967 27.4064 24.2351C32.5889 22.4131 36.5745 29.6088 25.7335 32.4587C25.7335 32.4588 25.8591 32.3465 25.8966 32.2461Z" fill="#5382A1"/>
<path d="M21.0027 0.546875C21.0027 0.546875 25.4982 5.04387 16.7389 11.959C9.71488 17.5061 15.1372 20.6689 16.736 24.2826C12.636 20.5833 9.62707 17.3269 11.6457 14.2961C14.6085 9.8471 22.8165 7.69008 21.0027 0.546875Z" fill="#E76F00"/>
<path d="M12.5883 43.6764C20.3799 44.1751 32.3447 43.3997 32.6281 39.7129C32.6281 39.7129 32.0834 41.1105 26.1888 42.2204C19.5385 43.472 11.3363 43.3258 6.4715 42.5238C6.47161 42.5236 7.46738 43.348 12.5883 43.6764Z" fill="#5382A1"/>
</g>
<defs>
<clipPath id="clip0_2027_11145">
<rect width="32.0689" height="43.3432" fill="white" transform="translate(0.653992 0.5)"/>
</clipPath>
</defs>
</svg>
