<svg width="44" height="45" viewBox="0 0 44 45" fill="none" xmlns="http://www.w3.org/2000/svg">
<g clip-path="url(#clip0_2027_11122)">
<path d="M37.4552 0.964844H7.115C3.52434 0.964844 0.613525 3.87565 0.613525 7.46632V37.8065C0.613525 41.3972 3.52434 44.308 7.115 44.308H37.4552C41.0459 44.308 43.9567 41.3972 43.9567 37.8065V7.46632C43.9567 3.87565 41.0459 0.964844 37.4552 0.964844Z" fill="#113228"/>
<path d="M19.8301 9.51489H24.5708V31.2711C22.1158 31.6944 20.3381 31.9484 18.391 31.9484C12.5498 31.9484 9.58691 29.3241 9.58691 24.3295C9.58691 19.5041 12.7191 16.4566 17.7138 16.4566C18.4757 16.4566 19.0682 16.4566 19.8301 16.6259V9.51489ZM19.8301 20.4353C19.2375 20.266 18.8143 20.1814 18.2217 20.1814C15.7667 20.1814 14.4122 21.7052 14.4122 24.2448C14.4122 26.7844 15.682 28.1389 18.137 28.1389C18.645 28.1389 19.0682 28.1389 19.8301 27.9696V20.4353ZM32.105 16.7105V27.631C32.105 31.4404 31.8511 33.2182 31.0045 34.742C30.2426 36.2658 29.2268 37.197 27.1104 38.2975L22.7084 36.1811C24.8247 35.2499 25.8406 34.3187 26.4332 33.0489C27.1104 31.6944 27.3644 30.1706 27.3644 26.0225V16.7105H32.105ZM27.3644 9.51489H32.105V14.3402H27.3644V9.51489Z" fill="white"/>
</g>
<defs>
<clipPath id="clip0_2027_11122">
<rect width="43.3432" height="43.3432" fill="white" transform="translate(0.613525 0.964844)"/>
</clipPath>
</defs>
</svg>
