<svg width="45" height="45" viewBox="0 0 45 45" fill="none" xmlns="http://www.w3.org/2000/svg">
<g clip-path="url(#clip0_2027_11130)">
<path d="M22.191 0.977539C11.1713 0.97754 11.8594 5.75637 11.8594 5.75637L11.8717 10.7072H22.3876V12.1937H7.69485C7.69485 12.1937 0.643311 11.394 0.643311 22.513C0.64331 33.632 6.79805 33.2377 6.79805 33.2377H10.4712V28.078C10.4712 28.078 10.2732 21.9233 16.5277 21.9233H26.9576C26.9576 21.9233 32.8175 22.018 32.8175 16.26V6.73916C32.8175 6.73916 33.7072 0.977539 22.191 0.977539ZM16.3926 4.30675C17.4388 4.30675 18.2844 5.15237 18.2844 6.19863C18.2844 7.24488 17.4388 8.0905 16.3926 8.0905C15.3463 8.0905 14.5007 7.24488 14.5007 6.19863C14.5007 5.15237 15.3463 4.30675 16.3926 4.30675Z" fill="url(#paint0_linear_2027_11130)"/>
<path d="M22.5041 44.1599C33.5238 44.1599 32.8357 39.381 32.8357 39.381L32.8234 34.4302H22.3075V32.9437H37.0003C37.0003 32.9437 44.0518 33.7434 44.0518 22.6244C44.0518 11.5054 37.8971 11.8997 37.8971 11.8997H34.2239V17.0593C34.2239 17.0593 34.4219 23.2141 28.1674 23.2141H17.7375C17.7375 23.2141 11.8776 23.1194 11.8776 28.8774V38.3982C11.8776 38.3982 10.9879 44.1599 22.5041 44.1599ZM28.3026 40.8306C27.2563 40.8306 26.4107 39.985 26.4107 38.9388C26.4107 37.8925 27.2563 37.0469 28.3026 37.0469C29.3488 37.0469 30.1944 37.8925 30.1944 38.9388C30.1944 39.985 29.3488 40.8306 28.3026 40.8306Z" fill="url(#paint1_linear_2027_11130)"/>
</g>
<defs>
<linearGradient id="paint0_linear_2027_11130" x1="1068.58" y1="991.433" x2="6575.51" y2="6422.13" gradientUnits="userSpaceOnUse">
<stop stop-color="#387EB8"/>
<stop offset="1" stop-color="#366994"/>
</linearGradient>
<linearGradient id="paint1_linear_2027_11130" x1="1588.1" y1="1704.9" x2="7501.96" y2="7273.61" gradientUnits="userSpaceOnUse">
<stop stop-color="#FFE052"/>
<stop offset="1" stop-color="#FFC331"/>
</linearGradient>
<clipPath id="clip0_2027_11130">
<rect width="43.5131" height="43.3432" fill="white" transform="translate(0.618774 0.964844)"/>
</clipPath>
</defs>
</svg>
