<svg width="56" height="45" viewBox="0 0 56 45" fill="none" xmlns="http://www.w3.org/2000/svg">
<g clip-path="url(#clip0_2027_11255)">
<path d="M25.7951 41.614C32.9587 40.3485 38.8754 39.3013 38.9434 39.2869L39.0669 39.2607L32.3038 31.2162C28.584 26.7917 25.5406 23.1544 25.5406 23.1335C25.5406 23.0938 32.5241 3.86264 32.5634 3.79417C32.5765 3.77135 37.329 11.9764 44.0838 23.6839C50.4077 34.6446 55.6215 43.6817 55.6699 43.7664L55.758 43.9204L34.2642 43.9176L12.7703 43.9148L25.7951 41.614ZM0 39.1608C0 39.1495 3.18677 33.6175 7.08171 26.8675L14.1634 14.5948L22.4163 7.66893C26.9554 3.85971 30.6814 0.738419 30.6964 0.73257C30.7113 0.727035 30.6516 0.87732 30.5637 1.06669C30.4758 1.25607 26.4431 9.90573 21.6022 20.2882L12.8006 39.1653L6.40028 39.1733C2.88013 39.1777 0 39.1721 0 39.1608Z" fill="#0089D6"/>
</g>
<defs>
<clipPath id="clip0_2027_11255">
<rect width="55.758" height="43.3432" fill="white" transform="translate(0 0.732422)"/>
</clipPath>
</defs>
</svg>
