<svg width="74" height="45" viewBox="0 0 74 45" fill="none" xmlns="http://www.w3.org/2000/svg">
<g clip-path="url(#clip0_2027_11259)">
<path d="M21.1848 16.4374C21.1848 17.3259 21.2808 18.0463 21.4489 18.5746C21.641 19.103 21.8812 19.6793 22.2174 20.3036C22.3374 20.4958 22.3855 20.6879 22.3855 20.856C22.3855 21.0961 22.2414 21.3362 21.9292 21.5764L20.4163 22.585C20.2002 22.729 19.9841 22.8011 19.792 22.8011C19.5518 22.8011 19.3117 22.681 19.0715 22.4649C18.7353 22.1047 18.4472 21.7205 18.207 21.3362C17.9669 20.928 17.7268 20.4717 17.4626 19.9194C15.5895 22.1287 13.2362 23.2333 10.4025 23.2333C8.38536 23.2333 6.77643 22.657 5.59975 21.5043C4.42307 20.3517 3.82272 18.8148 3.82272 16.8937C3.82272 14.8525 4.54314 13.1955 6.00799 11.9468C7.47283 10.6981 9.41796 10.0737 11.8914 10.0737C12.7079 10.0737 13.5483 10.1458 14.4369 10.2658C15.3254 10.3859 16.2379 10.578 17.1985 10.7941V9.04114C17.1985 7.21608 16.8142 5.94335 16.0698 5.19892C15.3014 4.45448 14.0046 4.09428 12.1555 4.09428C11.3151 4.09428 10.4506 4.19033 9.56204 4.40646C8.67353 4.62258 7.80903 4.88673 6.96854 5.22293C6.58432 5.39103 6.29615 5.48708 6.12806 5.53511C5.95996 5.58314 5.83989 5.60715 5.74383 5.60715C5.40764 5.60715 5.23954 5.36701 5.23954 4.86272V3.68604C5.23954 3.30182 5.28757 3.01365 5.40764 2.84556C5.52771 2.67746 5.74383 2.50936 6.08003 2.34126C6.92051 1.90901 7.9291 1.54881 9.10578 1.26064C10.2825 0.948459 11.5312 0.804375 12.8519 0.804375C15.7096 0.804375 17.7988 1.45275 19.1436 2.7495C20.4643 4.04625 21.1367 6.01539 21.1367 8.65691V16.4374H21.1848ZM11.4351 20.0875C12.2276 20.0875 13.0441 19.9434 13.9086 19.6553C14.7731 19.3671 15.5415 18.8388 16.1899 18.1184C16.5741 17.6621 16.8623 17.1578 17.0063 16.5815C17.1504 16.0052 17.2465 15.3088 17.2465 14.4923V13.4837C16.5501 13.3156 15.8056 13.1715 15.0372 13.0755C14.2688 12.9794 13.5243 12.9314 12.7799 12.9314C11.171 12.9314 9.99429 13.2436 9.20183 13.8919C8.40937 14.5403 8.02515 15.4528 8.02515 16.6535C8.02515 17.7822 8.31332 18.6227 8.91367 19.199C9.49 19.7994 10.3305 20.0875 11.4351 20.0875ZM30.7183 22.681C30.286 22.681 29.9978 22.609 29.8057 22.4409C29.6136 22.2968 29.4455 21.9606 29.3014 21.5043L23.6582 2.94161C23.5141 2.46133 23.4421 2.14915 23.4421 1.98106C23.4421 1.59683 23.6342 1.38071 24.0184 1.38071H26.3718C26.828 1.38071 27.1402 1.45275 27.3083 1.62085C27.5004 1.76493 27.6445 2.10112 27.7886 2.55739L31.8229 18.4546L35.5691 2.55739C35.6891 2.07711 35.8332 1.76493 36.0253 1.62085C36.2174 1.47676 36.5536 1.38071 36.9859 1.38071H38.907C39.3633 1.38071 39.6754 1.45275 39.8676 1.62085C40.0597 1.76493 40.2278 2.10112 40.3238 2.55739L44.118 18.6467L48.2724 2.55739C48.4165 2.07711 48.5846 1.76493 48.7527 1.62085C48.9448 1.47676 49.257 1.38071 49.6892 1.38071H51.9225C52.3067 1.38071 52.5229 1.57282 52.5229 1.98106C52.5229 2.10112 52.4989 2.22119 52.4748 2.36528C52.4508 2.50936 52.4028 2.70147 52.3067 2.96562L46.5194 21.5284C46.3753 22.0086 46.2072 22.3208 46.0151 22.4649C45.823 22.609 45.5108 22.705 45.1026 22.705H43.0374C42.5811 22.705 42.2689 22.633 42.0768 22.4649C41.8847 22.2968 41.7166 21.9846 41.6206 21.5043L37.8984 6.01539L34.2003 21.4803C34.0802 21.9606 33.9361 22.2728 33.744 22.4409C33.5519 22.609 33.2157 22.681 32.7835 22.681H30.7183ZM61.5761 23.3294C60.3274 23.3294 59.0787 23.1853 57.878 22.8971C56.6773 22.609 55.7407 22.2968 55.1164 21.9366C54.7321 21.7205 54.468 21.4803 54.3719 21.2642C54.2759 21.0481 54.2279 20.8079 54.2279 20.5918V19.3671C54.2279 18.8628 54.42 18.6227 54.7802 18.6227C54.9243 18.6227 55.0683 18.6467 55.2124 18.6947C55.3565 18.7427 55.5726 18.8388 55.8128 18.9349C56.6292 19.2951 57.5178 19.5832 58.4543 19.7753C59.4149 19.9674 60.3514 20.0635 61.312 20.0635C62.8248 20.0635 64.0015 19.7994 64.818 19.271C65.6344 18.7427 66.0667 17.9743 66.0667 16.9897C66.0667 16.3173 65.8506 15.765 65.4183 15.3088C64.9861 14.8525 64.1696 14.4443 62.9929 14.06L59.5109 12.9794C57.7579 12.4271 56.4611 11.6106 55.6687 10.53C54.8762 9.47339 54.468 8.29671 54.468 7.04798C54.468 6.0394 54.6841 5.15089 55.1164 4.38244C55.5486 3.614 56.125 2.94161 56.8454 2.41331C57.5658 1.86099 58.3823 1.45275 59.3428 1.16458C60.3034 0.876417 61.3119 0.756348 62.3686 0.756348C62.8969 0.756348 63.4492 0.780362 63.9775 0.852403C64.5298 0.924445 65.0341 1.0205 65.5384 1.11656C66.0187 1.23663 66.4749 1.35669 66.9072 1.50078C67.3394 1.64486 67.6756 1.78894 67.9158 1.93303C68.252 2.12514 68.4921 2.31725 68.6362 2.53337C68.7803 2.72549 68.8523 2.98964 68.8523 3.32583V4.45448C68.8523 4.95878 68.6602 5.22293 68.3 5.22293C68.1079 5.22293 67.7957 5.12687 67.3875 4.93476C66.0187 4.3104 64.4818 3.99822 62.7768 3.99822C61.408 3.99822 60.3274 4.21435 59.5829 4.67061C58.8385 5.12687 58.4543 5.82328 58.4543 6.80785C58.4543 7.48023 58.6944 8.05657 59.1747 8.51283C59.655 8.96909 60.5435 9.42536 61.8162 9.83359L65.2262 10.9142C66.9552 11.4665 68.2039 12.235 68.9484 13.2196C69.6928 14.2041 70.053 15.3328 70.053 16.5815C70.053 17.6141 69.8369 18.5506 69.4286 19.3671C68.9964 20.1836 68.4201 20.904 67.6756 21.4803C66.9312 22.0807 66.0427 22.5129 65.0101 22.8251C63.9295 23.1613 62.8008 23.3294 61.5761 23.3294Z" fill="#252F3E"/>
<path d="M66.1147 34.9999C58.2142 40.8353 46.7355 43.9331 36.8658 43.9331C23.0338 43.9331 10.5706 38.8181 1.15718 30.3172C0.41275 29.6448 1.08514 28.7323 1.97365 29.2606C12.1555 35.168 24.7148 38.7461 37.7063 38.7461C46.4714 38.7461 56.1009 36.921 64.9621 33.1749C66.2828 32.5745 67.4115 34.0394 66.1147 34.9999ZM69.4046 31.2538C68.396 29.957 62.7288 30.6294 60.1593 30.9416C59.3908 31.0376 59.2708 30.3652 59.9672 29.861C64.4818 26.6911 71.9021 27.6036 72.7666 28.6603C73.6311 29.7409 72.5264 37.1612 68.3 40.7152C67.6516 41.2675 67.0272 40.9794 67.3154 40.259C68.276 37.8816 70.4132 32.5265 69.4046 31.2538Z" fill="#FF9900"/>
</g>
<defs>
<clipPath id="clip0_2027_11259">
<rect width="72.5219" height="43.3432" fill="white" transform="translate(0.67688 0.732422)"/>
</clipPath>
</defs>
</svg>
