<svg width="55" height="45" viewBox="0 0 55 45" fill="none" xmlns="http://www.w3.org/2000/svg">
<g clip-path="url(#clip0_2027_11264)">
<path d="M36.5074 12.6873L41.1895 8.00514L41.5016 6.03366C32.9695 -1.72456 19.4067 -0.844862 11.7153 7.86922C9.57891 10.2895 7.99393 13.3069 7.14874 16.4228L8.82566 16.1865L18.1897 14.6423L18.9126 13.903C23.078 9.32837 30.1208 8.71294 34.9302 12.6052L36.5074 12.6873Z" fill="#EA4335"/>
<path d="M47.8594 16.285C46.7831 12.3218 44.5737 8.75905 41.5016 6.03369L34.9302 12.605C37.7051 14.8723 39.2858 18.288 39.2181 21.8706V23.0371C42.448 23.0371 45.0667 25.6555 45.0667 28.8854C45.0667 32.1156 42.448 34.6684 39.2181 34.6684H27.5047L26.3546 35.9169V42.9318L27.5047 44.0324H39.2181C47.6195 44.0978 54.4833 37.4059 54.5487 29.0045C54.5883 23.9121 52.0775 19.1381 47.8594 16.285Z" fill="#4285F4"/>
<path d="M15.8076 44.0324H27.5046V34.6682H15.8076C14.9742 34.668 14.1671 34.4889 13.4092 34.1426L11.7498 34.6518L7.03485 39.3339L6.62415 40.9275C9.26829 42.924 12.4944 44.0467 15.8076 44.0324Z" fill="#34A853"/>
<path d="M15.8076 13.6563C7.406 13.7064 0.636052 20.558 0.686128 28.9594C0.714112 33.651 2.90526 38.0674 6.62414 40.9274L13.4092 34.1425C10.4655 32.8126 9.1574 29.3483 10.4874 26.4047C11.8171 23.4612 15.2816 22.1531 18.225 23.4828C19.5221 24.0688 20.5609 25.1078 21.1468 26.4047L27.9319 19.6198C25.045 15.8458 20.5592 13.6393 15.8076 13.6563Z" fill="#FBBC05"/>
</g>
<defs>
<clipPath id="clip0_2027_11264">
<rect width="53.8634" height="43.3432" fill="white" transform="translate(0.685852 0.732422)"/>
</clipPath>
</defs>
</svg>
