<svg width="46" height="45" viewBox="0 0 46 45" fill="none" xmlns="http://www.w3.org/2000/svg">
<g clip-path="url(#clip0_2027_11271)">
<path d="M15.0441 43.3678C14.0091 43.3678 13.0316 42.9078 12.3704 42.074L2.30806 29.568C1.64682 28.7343 1.38807 27.6706 1.64682 26.6356L5.2405 11.0246C5.4705 9.98964 6.16048 9.15591 7.10921 8.69592L21.6564 1.73855C22.1164 1.50855 22.6339 1.39355 23.1514 1.39355C23.6689 1.39355 24.1864 1.50855 24.6464 1.73855L39.1936 8.66717C40.1423 9.12716 40.8323 9.96089 41.0623 10.9959L44.656 26.6068C44.886 27.6418 44.656 28.7055 43.9948 29.5393L33.9325 42.0453C33.2712 42.8503 32.2937 43.339 31.2588 43.339L15.0441 43.3678Z" fill="#326DE6"/>
<path d="M23.1227 2.11245C23.5252 2.11245 23.9277 2.1987 24.3014 2.3712L38.8487 9.29982C39.5961 9.67356 40.1711 10.3635 40.3436 11.1685L43.9373 26.7795C44.1386 27.6132 43.9373 28.4757 43.3911 29.1369L33.3288 41.643C32.8113 42.3042 32.0063 42.6779 31.1726 42.6779H15.0441C14.2104 42.6779 13.4054 42.3042 12.8879 41.643L2.82559 29.1369C2.3081 28.4757 2.10685 27.6132 2.27935 26.7795L5.87303 11.1685C6.07427 10.3348 6.62051 9.64481 7.368 9.29982L21.9152 2.34245C22.289 2.1987 22.7202 2.11245 23.1227 2.11245ZM23.1227 0.76123C22.519 0.76123 21.9152 0.904978 21.3402 1.16372L6.79301 8.12109C5.64303 8.66733 4.83805 9.67356 4.55055 10.9098L0.956871 26.5207C0.669376 27.757 0.956871 29.0219 1.76186 30.0282L11.8242 42.5342C12.6004 43.5117 13.7791 44.0579 15.0154 44.0579H31.1438C32.38 44.0579 33.5588 43.5117 34.335 42.5342L44.3973 30.0282C45.2023 29.0507 45.4898 27.757 45.2023 26.5207L41.6086 10.9098C41.3211 9.67356 40.5161 8.66733 39.3661 8.12109L24.8764 1.16372C24.3302 0.904978 23.7264 0.76123 23.1227 0.76123Z" fill="white"/>
<path d="M37.6988 25.5432C37.67 25.5432 37.67 25.5432 37.6988 25.5432H37.67C37.6413 25.5432 37.6125 25.5432 37.6125 25.5145C37.555 25.5145 37.4975 25.4858 37.44 25.4858C37.2388 25.457 37.0663 25.4283 36.8938 25.4283C36.8075 25.4283 36.7213 25.4283 36.6063 25.3995H36.5775C35.9738 25.342 35.4851 25.2845 35.0251 25.1408C34.8238 25.0545 34.7663 24.9395 34.7088 24.8245C34.7088 24.7958 34.6801 24.7958 34.6801 24.767L34.3063 24.652C34.4788 23.3295 34.4213 21.9496 34.1051 20.5983C33.7888 19.2471 33.2426 17.9821 32.4951 16.8322L32.7826 16.5734V16.5159C32.7826 16.3722 32.8114 16.2284 32.9264 16.0847C33.2713 15.7684 33.7026 15.5097 34.2201 15.1934C34.3063 15.1359 34.3926 15.1072 34.4788 15.0497C34.6513 14.9634 34.7951 14.8772 34.9676 14.7622C34.9963 14.7335 35.0538 14.7047 35.1113 14.6472C35.1401 14.6185 35.1688 14.6185 35.1688 14.5897C35.5713 14.2447 35.6576 13.6697 35.3701 13.296C35.2263 13.0947 34.9676 12.9797 34.7088 12.9797C34.4788 12.9797 34.2776 13.066 34.0763 13.2097C34.0476 13.2385 34.0476 13.2385 34.0188 13.2672C33.9613 13.296 33.9326 13.3535 33.8751 13.3822C33.7313 13.526 33.6163 13.641 33.5013 13.7847C33.4438 13.8422 33.3863 13.9285 33.3001 13.986C32.8976 14.4172 32.5239 14.7622 32.1501 15.0209C32.0639 15.0784 31.9776 15.1072 31.8914 15.1072C31.8339 15.1072 31.7764 15.1072 31.7189 15.0784H31.6614L31.3164 15.3084C30.9426 14.906 30.5401 14.561 30.1377 14.216C28.4127 12.8647 26.314 12.031 24.129 11.8298L24.1003 11.456C24.0715 11.4273 24.0715 11.4273 24.0428 11.3985C23.9565 11.3123 23.8415 11.226 23.8128 11.0248C23.784 10.5648 23.8415 10.0473 23.899 9.4723V9.44356C23.899 9.35731 23.9278 9.24231 23.9565 9.15606C23.9853 8.98356 24.014 8.81107 24.0428 8.60982V8.43732V8.35108C24.0428 7.83359 23.6403 7.40234 23.1515 7.40234C22.9215 7.40234 22.6915 7.51734 22.5191 7.68984C22.3466 7.86233 22.2603 8.09233 22.2603 8.35108V8.40857V8.58107C22.2603 8.78232 22.2891 8.95481 22.3466 9.12731C22.3753 9.21356 22.3753 9.29981 22.4041 9.4148V9.44356C22.4616 10.0185 22.5478 10.536 22.4903 10.996C22.4616 11.1973 22.3466 11.2835 22.2603 11.3698C22.2316 11.3985 22.2316 11.3985 22.2028 11.4273L22.1741 11.801C21.6566 11.8585 21.1391 11.916 20.6216 12.031C18.4079 12.5197 16.4529 13.641 14.9292 15.2509L14.6417 15.0497H14.5842C14.5267 15.0497 14.4692 15.0784 14.4117 15.0784C14.3255 15.0784 14.2392 15.0497 14.153 14.9922C13.7792 14.7335 13.4055 14.3597 13.003 13.9285C12.9455 13.871 12.888 13.7847 12.8017 13.7272C12.6867 13.5835 12.5717 13.4685 12.428 13.3247C12.3992 13.296 12.3417 13.2672 12.2842 13.2097C12.2555 13.181 12.2267 13.181 12.2267 13.1522C12.0542 13.0085 11.8243 12.9222 11.5943 12.9222C11.3355 12.9222 11.0768 13.0372 10.933 13.2385C10.6455 13.6122 10.7318 14.1872 11.1343 14.5322C11.163 14.5322 11.163 14.561 11.1918 14.561C11.2493 14.5897 11.278 14.6472 11.3355 14.676C11.508 14.791 11.6518 14.8772 11.8243 14.9634C11.9105 14.9922 11.9967 15.0497 12.083 15.1072C12.6005 15.4234 13.0317 15.6822 13.3767 15.9984C13.5205 16.1422 13.5205 16.2859 13.5205 16.4297V16.4872L13.808 16.7459C13.7505 16.8322 13.693 16.8897 13.6642 16.9759C12.2267 19.2471 11.6805 21.9208 12.0542 24.5658L11.6805 24.6808C11.6805 24.7095 11.6518 24.7095 11.6518 24.7383C11.5943 24.8533 11.508 24.9683 11.3355 25.0545C10.9043 25.1983 10.3868 25.2558 9.78304 25.3133H9.75429C9.66804 25.3133 9.55305 25.3133 9.4668 25.342C9.2943 25.342 9.1218 25.3708 8.92056 25.3995C8.86306 25.3995 8.80556 25.4283 8.74806 25.4283C8.71931 25.4283 8.69056 25.4283 8.66181 25.457C8.14432 25.572 7.82808 26.0607 7.91433 26.5207C8.00058 26.9232 8.37432 27.182 8.83431 27.182C8.92056 27.182 8.97806 27.182 9.06431 27.1532C9.09305 27.1532 9.1218 27.1532 9.1218 27.1245C9.1793 27.1245 9.2368 27.0957 9.2943 27.0957C9.49555 27.0382 9.63929 26.9807 9.81179 26.8945C9.89804 26.8657 9.98429 26.8082 10.0705 26.7795H10.0993C10.6455 26.5782 11.1343 26.4057 11.5943 26.3482H11.6518C11.8243 26.3482 11.9393 26.4345 12.0255 26.492C12.0542 26.492 12.0542 26.5207 12.083 26.5207L12.4855 26.4632C13.1755 28.5907 14.498 30.4882 16.2517 31.8681C16.6542 32.1844 17.0567 32.4431 17.4879 32.7019L17.3154 33.0756C17.3154 33.1044 17.3441 33.1044 17.3441 33.1331C17.4016 33.2481 17.4591 33.3919 17.4016 33.5931C17.2292 34.0243 16.9704 34.4556 16.6542 34.9443V34.9731C16.5967 35.0593 16.5392 35.1168 16.4817 35.2031C16.3667 35.3468 16.2804 35.4906 16.1654 35.6631C16.1367 35.6918 16.1079 35.7493 16.0792 35.8068C16.0792 35.8356 16.0504 35.8643 16.0504 35.8643C15.8204 36.353 15.9929 36.8993 16.4242 37.1005C16.5392 37.158 16.6542 37.1868 16.7692 37.1868C17.1142 37.1868 17.4591 36.9568 17.6316 36.6405C17.6316 36.6118 17.6604 36.583 17.6604 36.583C17.6891 36.5255 17.7179 36.468 17.7466 36.4393C17.8329 36.238 17.8616 36.0943 17.9191 35.9218C17.9479 35.8356 17.9766 35.7493 18.0054 35.6631C18.2066 35.0881 18.3504 34.6281 18.6091 34.2256C18.7241 34.0531 18.8679 34.0243 18.9829 33.9668C19.0116 33.9668 19.0116 33.9668 19.0404 33.9381L19.2416 33.5643C20.5066 34.0531 21.8866 34.3118 23.2665 34.3118C24.1003 34.3118 24.9628 34.2256 25.7677 34.0243C26.2852 33.9093 26.774 33.7656 27.2627 33.5931L27.4352 33.9093C27.464 33.9093 27.464 33.9093 27.4927 33.9381C27.6365 33.9668 27.7515 34.0243 27.8665 34.1968C28.0964 34.5993 28.2689 35.0881 28.4702 35.6343V35.6631C28.4989 35.7493 28.5277 35.8356 28.5564 35.9218C28.6139 36.0943 28.6427 36.2668 28.7289 36.4393C28.7577 36.4968 28.7864 36.5255 28.8152 36.583C28.8152 36.6118 28.8439 36.6405 28.8439 36.6405C29.0164 36.9855 29.3614 37.1868 29.7064 37.1868C29.8214 37.1868 29.9364 37.158 30.0514 37.1005C30.2527 36.9855 30.4252 36.813 30.4827 36.583C30.5401 36.353 30.5401 36.0943 30.4252 35.8643C30.4252 35.8356 30.3964 35.8356 30.3964 35.8068C30.3677 35.7493 30.3389 35.6918 30.3102 35.6631C30.2239 35.4906 30.1089 35.3468 29.9939 35.2031C29.9364 35.1168 29.8789 35.0593 29.8214 34.9731V34.9443C29.5052 34.4556 29.2177 34.0243 29.0739 33.5931C29.0164 33.3919 29.0739 33.2769 29.1027 33.1331C29.1027 33.1044 29.1314 33.1044 29.1314 33.0756L28.9877 32.7306C30.5114 31.8394 31.8051 30.5744 32.7826 29.0219C33.3001 28.2169 33.7026 27.3257 33.9901 26.4345L34.3351 26.492C34.3638 26.492 34.3638 26.4632 34.3926 26.4632C34.5076 26.4057 34.5938 26.3195 34.7663 26.3195H34.8238C35.2838 26.377 35.7726 26.5495 36.3188 26.7507H36.3475C36.4338 26.7795 36.52 26.837 36.6063 26.8657C36.7788 26.952 36.9225 27.0095 37.1238 27.067C37.1813 27.067 37.2388 27.0957 37.2963 27.0957C37.325 27.0957 37.3538 27.0957 37.3825 27.1245C37.4688 27.1532 37.5263 27.1532 37.6125 27.1532C38.0438 27.1532 38.4175 26.8657 38.5325 26.492C38.5325 26.147 38.2163 25.687 37.6988 25.5432ZM24.3878 24.1345L23.1228 24.7383L21.8578 24.1345L21.5416 22.7833L22.4041 21.6908H23.8128L24.6753 22.7833L24.3878 24.1345ZM31.8914 21.1446C32.1214 22.1221 32.1789 23.0995 32.0926 24.0483L27.694 22.7833C27.2915 22.6683 27.0615 22.2658 27.1477 21.8633C27.1765 21.7483 27.234 21.6333 27.3202 21.5471L30.7989 18.4134C31.2876 19.2184 31.6614 20.1384 31.8914 21.1446ZM29.4189 16.6884L25.6527 19.3621C25.3365 19.5634 24.9053 19.5059 24.6465 19.1896C24.5603 19.1034 24.5315 18.9884 24.5028 18.8734L24.244 14.1872C26.2277 14.4172 28.0389 15.3084 29.4189 16.6884ZM21.0816 14.331C21.3978 14.2735 21.6853 14.216 22.0016 14.1585L21.7428 18.7584C21.7141 19.1609 21.3978 19.5059 20.9666 19.5059C20.8516 19.5059 20.7078 19.4771 20.6216 19.4196L16.7979 16.6884C17.9766 15.5097 19.4429 14.7047 21.0816 14.331ZM15.4179 18.4134L18.8391 21.4608C19.1554 21.7196 19.1841 22.2083 18.9254 22.5246C18.8391 22.6396 18.7241 22.7258 18.5804 22.7546L14.1242 24.0483C13.9517 22.0933 14.383 20.1096 15.4179 18.4134ZM14.6417 26.2045L19.2129 25.4283C19.5866 25.3995 19.9316 25.6582 20.0178 26.032C20.0466 26.2045 20.0466 26.3482 19.9891 26.492L18.2354 30.7181C16.6254 29.6832 15.3317 28.1019 14.6417 26.2045ZM25.1353 31.9256C24.474 32.0694 23.8128 32.1556 23.1228 32.1556C22.1166 32.1556 21.1391 31.9831 20.2191 31.6956L22.4903 27.5845C22.7203 27.3257 23.094 27.2107 23.4103 27.3832C23.554 27.4695 23.669 27.5845 23.7553 27.6995L25.969 31.6956C25.7102 31.7819 25.4227 31.8394 25.1353 31.9256ZM30.7414 27.9295C30.0227 29.0794 29.0739 29.9994 27.9814 30.7181L26.1702 26.377C26.084 26.032 26.2277 25.6582 26.5727 25.4858C26.6877 25.4283 26.8315 25.3995 26.9752 25.3995L31.5751 26.1757C31.4026 26.8082 31.1151 27.3832 30.7414 27.9295Z" fill="white"/>
</g>
<defs>
<clipPath id="clip0_2027_11271">
<rect width="44.5617" height="43.3432" fill="white" transform="translate(0.755615 0.732422)"/>
</clipPath>
</defs>
</svg>
