<svg width="61" height="45" viewBox="0 0 61 45" fill="none" xmlns="http://www.w3.org/2000/svg">
<g clip-path="url(#clip0_2027_11278)">
<path d="M59.6948 17.249C58.3442 16.3119 55.2491 15.9605 52.8293 16.429C52.548 14.0863 51.2537 12.0363 49.0027 10.2207L47.7084 9.28357L46.808 10.6307C45.6825 12.3878 45.1198 14.8477 45.2886 17.1905C45.3449 18.0104 45.6262 19.4747 46.4703 20.7632C45.6825 21.2317 44.0505 21.8174 41.9121 21.8174H1.22581L1.11326 22.286C0.719341 24.6288 0.719341 31.95 5.33383 37.5726C8.82284 41.8482 14.0001 44.0153 20.8093 44.0153C35.5531 44.0153 46.4703 36.9284 51.5913 24.1017C53.6172 24.1602 57.9503 24.1017 60.145 19.7089C60.2013 19.5918 60.3138 19.3575 60.7077 18.479L60.9328 18.0104L59.6948 17.249ZM33.7524 0.732422H27.5622V6.58937H33.7524V0.732422ZM33.7524 7.76076H27.5622V13.6177H33.7524V7.76076ZM26.4367 7.76076H20.2465V13.6177H26.4367V7.76076ZM19.121 7.76076H12.9309V13.6177H19.121V7.76076ZM11.8054 14.7891H5.6152V20.6461H11.8054V14.7891ZM19.121 14.7891H12.9309V20.6461H19.121V14.7891ZM26.4367 14.7891H20.2465V20.6461H26.4367V14.7891ZM33.7524 14.7891H27.5622V20.6461H33.7524V14.7891ZM41.068 14.7891H34.8778V20.6461H41.068V14.7891Z" fill="#2396ED"/>
</g>
<defs>
<clipPath id="clip0_2027_11278">
<rect width="59.9776" height="43.3432" fill="white" transform="translate(0.955261 0.732422)"/>
</clipPath>
</defs>
</svg>
