<svg width="23" height="45" viewBox="0 0 23 45" fill="none" xmlns="http://www.w3.org/2000/svg">
<g clip-path="url(#clip0_2027_11282)">
<path d="M18.9747 0.976962C18.3001 1.37329 17.1701 2.51168 15.8209 4.15602V4.25721L17.0015 6.44124L17.0605 6.4834C17.9291 5.24382 18.806 4.12229 19.6999 3.16942C19.7673 3.09353 19.8011 3.0598 19.8011 3.0598C19.7673 3.09353 19.7336 3.13569 19.6999 3.16942C19.4132 3.48985 18.5362 4.50176 17.2207 6.52556L17.3725 6.55929C17.3725 6.55929 20.4504 6.25572 21.9345 6.00275L22.0188 5.92685C22.491 3.27904 21.555 2.06476 21.555 2.06476C21.555 2.06476 20.3745 0.159007 18.9747 0.976962Z" fill="url(#paint0_linear_2027_11282)"/>
<path d="M13.4176 12.5125C13.7971 11.8126 14.1765 11.1212 14.556 10.455C14.9523 9.76352 15.3571 9.08892 15.7703 8.43962C15.7956 8.40589 15.8209 8.36372 15.8377 8.32156C16.2425 7.68069 16.6473 7.07355 17.0604 6.48327L15.8209 4.14746C15.7281 4.25708 15.6354 4.37514 15.5426 4.49319C15.1884 4.94012 14.8174 5.41234 14.4379 5.91829C14.0079 6.4917 13.5694 7.09884 13.1225 7.73972C12.7093 8.32999 12.2876 8.954 11.8744 9.58644C11.5203 10.1346 11.1577 10.6911 10.8035 11.2729C10.7867 11.2982 10.7782 11.3151 10.7614 11.3404V11.4332L12.3045 14.4942L12.372 14.5195C12.7177 13.8449 13.0634 13.1703 13.4176 12.5125Z" fill="url(#paint1_linear_2027_11282)"/>
<path d="M6.69692 27.4975C6.97519 26.7723 7.27033 26.0387 7.56547 25.2966C7.85217 24.5883 8.13888 23.8715 8.44245 23.1548C8.73759 22.438 9.04959 21.7213 9.36159 20.9961C9.68203 20.2624 10.0025 19.5288 10.3313 18.8036C10.6602 18.0868 10.9891 17.3701 11.3264 16.6617C11.4444 16.4088 11.5709 16.1474 11.6974 15.8944C11.9082 15.4559 12.1275 15.0174 12.3383 14.5873C12.3467 14.562 12.3636 14.5452 12.372 14.5199L10.7614 11.3408C10.7361 11.383 10.7108 11.4251 10.6855 11.4673C10.3145 12.0829 9.93501 12.7069 9.57241 13.3478C9.20138 13.9971 8.83878 14.6548 8.48461 15.321C8.18104 15.8859 7.89433 16.4509 7.60763 17.0243C7.5486 17.1424 7.49801 17.252 7.43898 17.3701C7.08481 18.0953 6.77281 18.7867 6.4861 19.4613C6.16567 20.2203 5.87896 20.9455 5.62599 21.6369C5.45733 22.0923 5.31398 22.5223 5.17063 22.944C5.06101 23.2981 4.95138 23.6607 4.85019 24.0149C4.60565 24.8582 4.40327 25.693 4.23462 26.5362L4.25992 26.6374L5.80307 29.7069L5.85366 29.7322C6.06448 29.1587 6.28372 28.5853 6.5114 27.9951C6.57043 27.8264 6.63789 27.6662 6.69692 27.4975Z" fill="url(#paint2_linear_2027_11282)"/>
<path d="M4.21781 26.6453C4.01543 27.6656 3.87208 28.6859 3.79619 29.6978C3.79619 29.7316 3.78775 29.7653 3.78775 29.8075C3.2818 28.9979 1.9326 28.2137 1.9326 28.2137C2.90234 29.6135 3.63597 31.0049 3.74559 32.371C3.23121 32.4806 2.52287 32.3204 1.69649 32.0252C2.54817 32.8094 3.18904 33.0287 3.44202 33.0877C2.65779 33.1383 1.83984 33.678 1.01345 34.2936C2.2193 33.8045 3.18904 33.6105 3.88894 33.7623C2.78428 36.8908 1.67962 40.3481 0.566528 44.0078C0.903829 43.9066 1.10621 43.679 1.22427 43.367C1.41821 42.7008 2.73369 38.3496 4.78279 32.6239C4.84182 32.4637 4.90085 32.2951 4.95987 32.1348C4.97674 32.0927 4.9936 32.0421 5.01047 31.9999C5.22971 31.4012 5.44896 30.7856 5.68507 30.1616C5.73567 30.0183 5.79469 29.8749 5.84529 29.7316V29.7231L4.23468 26.5356C4.23468 26.5778 4.22624 26.6115 4.21781 26.6453Z" fill="url(#paint3_linear_2027_11282)"/>
<path d="M17.2206 6.53377C16.858 7.09031 16.4617 7.72275 16.0316 8.43952C16.0063 8.47325 15.9894 8.51541 15.9641 8.54914C15.5931 9.17315 15.2052 9.84775 14.792 10.5982C14.4379 11.2391 14.0668 11.9306 13.6789 12.6811C13.3416 13.3304 12.9959 14.0134 12.6417 14.747L12.7176 14.7808L16.6387 14.3591L16.7315 14.2917C17.9205 13.7436 18.4517 13.2461 18.9661 12.5293C19.101 12.3353 19.2444 12.1245 19.3793 11.9137C19.8009 11.256 20.2141 10.5392 20.5767 9.82245C20.9309 9.13099 21.2429 8.43952 21.4874 7.82394C21.6392 7.42762 21.7657 7.06502 21.85 6.74458C21.9259 6.45788 21.985 6.18803 22.0271 5.93506C20.4418 6.21333 18.4939 6.47474 17.2206 6.53377Z" fill="url(#paint4_linear_2027_11282)"/>
<path d="M12.4901 15.0761C12.3552 15.3628 12.2118 15.6579 12.0685 15.9531C11.9167 16.2735 11.7565 16.6108 11.6047 16.9481C11.5288 17.1168 11.4445 17.2938 11.3686 17.4625C11.124 17.9853 10.8879 18.525 10.6349 19.0815C10.3314 19.7646 10.0194 20.4813 9.70735 21.215C9.40378 21.9233 9.10021 22.6485 8.79664 23.4074C8.5015 24.1242 8.20636 24.8663 7.91122 25.6252C7.64138 26.3082 7.37154 26.9997 7.1017 27.7249C7.08484 27.7586 7.0764 27.7923 7.05954 27.8261C6.7897 28.5428 6.52651 29.272 6.24823 30.0225C6.2398 30.0393 6.22474 30.0832 6.21631 30.1001L6.27455 30.113L7.44743 29.9869L7.51365 29.9595C7.48835 29.9511 7.47273 29.9173 7.44743 29.9089C8.99902 29.715 11.065 28.5513 12.4058 27.1177C13.0213 26.46 13.5779 25.6758 14.1007 24.7651C14.4886 24.082 14.8428 23.3315 15.1885 22.4967C15.4921 21.7715 15.7788 20.9789 16.057 20.1272C15.7029 20.3127 15.2897 20.456 14.8428 20.5488C14.7669 20.5657 14.6825 20.5825 14.5982 20.5994C14.5139 20.6163 14.4296 20.6247 14.3537 20.6416C15.8041 20.085 16.7148 19.0056 17.3809 17.6902C17.0015 17.9516 16.3775 18.2889 15.6354 18.4575C15.5342 18.4828 15.433 18.4997 15.3234 18.5166C15.2981 18.5166 15.2728 18.525 15.2475 18.525C15.7535 18.3142 16.1751 18.0781 16.5461 17.7998C16.622 17.7408 16.6979 17.6817 16.7738 17.6143C16.8834 17.5131 16.9931 17.4119 17.0942 17.3107C17.1617 17.2433 17.2207 17.1758 17.2882 17.0999C17.4315 16.9312 17.5665 16.7457 17.693 16.5434C17.7351 16.4843 17.7688 16.4169 17.811 16.3578C17.8616 16.2651 17.9038 16.1723 17.9459 16.0796C18.1483 15.6748 18.3085 15.3122 18.435 14.9918C18.5025 14.8315 18.5531 14.6882 18.6037 14.5448C18.6205 14.4942 18.6374 14.4352 18.6627 14.3846C18.7133 14.2328 18.7554 14.0979 18.7892 13.9714C18.8398 13.7943 18.8651 13.651 18.8819 13.5498C18.8313 13.592 18.7807 13.6257 18.7133 13.6679C18.2748 13.9293 17.5243 14.1654 16.9172 14.275C16.8328 14.2919 16.7738 14.3003 16.7063 14.3172C16.712 14.3115 15.3596 14.4545 12.6492 14.7461C12.6323 14.763 12.5322 14.9749 12.4901 15.0761Z" fill="url(#paint5_linear_2027_11282)"/>
<path d="M6.08975 30.4148C5.87893 30.9966 5.65969 31.5953 5.44887 32.2025C5.44887 32.2109 5.44044 32.2193 5.44044 32.2278C5.40671 32.3121 5.38141 32.3964 5.34768 32.4892C5.20433 32.9024 5.07784 33.265 4.79114 34.1082C5.26336 34.3275 5.64282 34.8925 6.00542 35.5418C5.97169 34.8756 5.69342 34.2432 5.16217 33.7625C7.49798 33.8637 9.51335 33.2734 10.5506 31.57C10.6433 31.4183 10.7276 31.258 10.8035 31.0894C10.3313 31.6881 9.74103 31.9411 8.6448 31.882C10.2723 31.1569 11.0818 30.457 11.807 29.3017C11.9756 29.0234 12.1443 28.7283 12.3129 28.3994C10.8879 29.8582 9.24351 30.2714 7.51484 29.9594L6.21623 30.1028C6.17407 30.1955 6.13191 30.3052 6.08975 30.4148Z" fill="url(#paint6_linear_2027_11282)"/>
</g>
<defs>
<linearGradient id="paint0_linear_2027_11282" x1="281.021" y1="1894.03" x2="2491.14" y2="422.812" gradientUnits="userSpaceOnUse">
<stop stop-color="#F69923"/>
<stop offset="0.3123" stop-color="#F79A23"/>
<stop offset="0.8383" stop-color="#E97826"/>
</linearGradient>
<linearGradient id="paint1_linear_2027_11282" x1="-3499.01" y1="20963.1" x2="6981.12" y2="4383.63" gradientUnits="userSpaceOnUse">
<stop offset="0.3233" stop-color="#9E2064"/>
<stop offset="0.6302" stop-color="#C92037"/>
<stop offset="0.7514" stop-color="#CD2335"/>
<stop offset="1" stop-color="#E97826"/>
</linearGradient>
<linearGradient id="paint2_linear_2027_11282" x1="-1663.22" y1="16058.6" x2="11058.3" y2="5376.48" gradientUnits="userSpaceOnUse">
<stop offset="0.3233" stop-color="#9E2064"/>
<stop offset="0.6302" stop-color="#C92037"/>
<stop offset="0.7514" stop-color="#CD2335"/>
<stop offset="1" stop-color="#E97826"/>
</linearGradient>
<linearGradient id="paint3_linear_2027_11282" x1="-246.946" y1="6947.01" x2="5508.18" y2="4693.83" gradientUnits="userSpaceOnUse">
<stop stop-color="#282662"/>
<stop offset="0.0954839" stop-color="#662E8D"/>
<stop offset="0.7882" stop-color="#9F2064"/>
<stop offset="0.9487" stop-color="#CD2032"/>
</linearGradient>
<linearGradient id="paint4_linear_2027_11282" x1="-3105.6" y1="21007.6" x2="1104.35" y2="679.872" gradientUnits="userSpaceOnUse">
<stop offset="0.3233" stop-color="#9E2064"/>
<stop offset="0.6302" stop-color="#C92037"/>
<stop offset="0.7514" stop-color="#CD2335"/>
<stop offset="1" stop-color="#E97826"/>
</linearGradient>
<linearGradient id="paint5_linear_2027_11282" x1="-1124.75" y1="15931.7" x2="6483.37" y2="-3168.34" gradientUnits="userSpaceOnUse">
<stop offset="0.3233" stop-color="#9E2064"/>
<stop offset="0.6302" stop-color="#C92037"/>
<stop offset="0.7514" stop-color="#CD2335"/>
<stop offset="1" stop-color="#E97826"/>
</linearGradient>
<linearGradient id="paint6_linear_2027_11282" x1="-392.244" y1="7070.23" x2="2152.2" y2="-5033.73" gradientUnits="userSpaceOnUse">
<stop stop-color="#282662"/>
<stop offset="0.0954839" stop-color="#662E8D"/>
<stop offset="0.7882" stop-color="#9F2064"/>
<stop offset="0.9487" stop-color="#CD2032"/>
</linearGradient>
<clipPath id="clip0_2027_11282">
<rect width="21.6716" height="43.3432" fill="white" transform="translate(0.515869 0.732422)"/>
</clipPath>
</defs>
</svg>
