<svg width="45" height="45" viewBox="0 0 45 45" fill="none" xmlns="http://www.w3.org/2000/svg">
<path d="M22.3717 3.44141H22.4597C22.9109 3.65631 23.3504 3.89504 23.7763 4.15657C28.6786 6.97568 33.5809 9.7957 38.4832 12.6166C38.6728 12.7178 38.8277 12.8737 38.9277 13.064C39.0277 13.2544 39.0682 13.4703 39.0439 13.6839C39.0331 19.6287 39.0439 25.5722 39.0371 31.5142C38.9733 31.7978 38.8 32.0447 38.555 32.201C33.342 35.2025 28.1287 38.2022 22.9148 41.2001C22.7885 41.2964 22.6362 41.3526 22.4776 41.3616C22.319 41.3705 22.1613 41.3317 22.0249 41.2502C16.8057 38.2577 11.5914 35.2598 6.38213 32.2565C6.21283 32.1764 6.07102 32.048 5.9746 31.8875C5.87818 31.727 5.83146 31.5415 5.84034 31.3544C5.84034 25.411 5.84034 19.468 5.84034 13.5255C5.82756 13.3392 5.87061 13.1534 5.96398 12.9918C6.05735 12.8301 6.19681 12.7 6.36452 12.618C11.2605 9.80247 16.1565 6.98516 21.0524 4.16605C21.4886 3.91683 21.9166 3.6527 22.3717 3.44141Z" fill="#019639"/>
<path d="M12.6452 15.006C12.6452 19.9083 12.6452 24.811 12.6452 29.7142C12.6389 29.9858 12.6869 30.2558 12.7862 30.5086C12.8855 30.7614 13.0342 30.9919 13.2236 31.1865C13.5866 31.5452 14.0616 31.7685 14.5693 31.8193C15.0771 31.87 15.5869 31.7452 16.0138 31.4656C16.2995 31.2714 16.5334 31.0103 16.6951 30.7051C16.8568 30.3998 16.9415 30.0597 16.9416 29.7142C16.9416 26.1655 16.9348 22.6168 16.9416 19.0681C20.177 22.9419 23.4191 26.8102 26.6681 30.6732C27.1194 31.1305 27.6784 31.4671 28.2937 31.6522C28.909 31.8372 29.561 31.8648 30.1897 31.7324C30.6337 31.6449 31.0379 31.4173 31.3429 31.0831C31.6479 30.7488 31.8376 30.3255 31.8841 29.8754C31.8914 24.872 31.8914 19.869 31.8841 14.8665C31.8375 14.3325 31.5924 13.8354 31.1973 13.4732C30.8021 13.1111 30.2855 12.9102 29.7495 12.9102C29.2135 12.9102 28.6969 13.1111 28.3017 13.4732C27.9066 13.8354 27.6615 14.3325 27.6148 14.8665C27.6148 18.4721 27.5932 22.0736 27.6148 25.6779C24.4372 21.9314 21.2989 18.1524 18.1335 14.3924C17.7162 13.8573 17.1637 13.4432 16.533 13.1927C15.9023 12.9422 15.2163 12.8645 14.5455 12.9675C14.0374 13.0241 13.5664 13.2608 13.2178 13.6347C12.8691 14.0087 12.666 14.4952 12.6452 15.006Z" fill="white"/>
</svg>
