<svg width="48" height="45" viewBox="0 0 48 45" fill="none" xmlns="http://www.w3.org/2000/svg">
<g clip-path="url(#clip0_2027_11297)">
<path d="M14.3103 20.2815L6.8363 23.001C6.93221 24.1993 7.13842 25.3829 7.42893 26.5426L14.5279 23.9573C14.3003 22.759 14.2191 21.5213 14.3119 20.2812" fill="#DA2430"/>
<path d="M47.3398 12.017C46.8185 10.9418 46.2156 9.90261 45.5171 8.92334L38.0452 11.6429C38.9148 12.5323 39.644 13.532 40.241 14.6011L47.34 12.0165L47.3398 12.017Z" fill="#DA2430"/>
<path d="M34.0819 11.973C33.1418 11.1572 32.0801 10.4532 30.8982 9.90186H30.8977C23.959 6.66703 15.6803 9.67661 12.4455 16.6177C12.2632 17.0093 12.1017 17.4052 11.9602 17.8042C11.5564 18.9788 11.3206 20.1798 11.2303 21.3788L11.204 21.3885C11.2033 21.3973 11.2026 21.4061 11.202 21.4149L6.70385 23.0517L3.80947 24.1213C3.80905 24.116 3.80864 24.1107 3.80822 24.1053L3.72886 24.1342C3.44787 20.5798 4.047 16.9082 5.65885 13.4518C5.86987 12.9991 6.09485 12.5573 6.33303 12.1266C11.6465 2.22977 23.7369 -1.907 33.9334 2.92232C36.0439 3.92232 37.9153 5.23339 39.5216 6.77621C40.6024 7.77595 41.567 8.87716 42.4078 10.0572L34.9354 12.7772C34.8969 12.7379 34.8582 12.6988 34.8193 12.6599L34.7986 12.6676C34.5684 12.4285 34.3295 12.1967 34.0819 11.973Z" fill="#DA2430"/>
<path d="M4.14605 36.1929L4.13427 36.1972C2.57955 34.008 1.44794 31.5486 0.795166 28.96L7.89554 26.374L7.89601 26.3745C7.89747 26.3821 7.89894 26.3898 7.90041 26.3974L7.94652 26.3804L7.94759 26.3832C8.31229 28.3146 9.07145 30.157 10.1783 31.7771C10.6004 32.3793 11.072 32.9502 11.5906 33.4828L11.5624 33.493C11.5803 33.5119 11.5982 33.5306 11.6162 33.5494L4.2117 36.2873C4.18973 36.2559 4.16785 36.2244 4.14605 36.1929Z" fill="#E82429"/>
<path d="M32.3473 34.2821C28.4974 36.6627 23.5593 37.1227 19.159 35.0707C17.6024 34.3447 16.2463 33.3629 15.114 32.2004L7.65759 34.9151C7.67657 34.9418 7.6956 34.9684 7.7147 34.995L7.71101 34.9964C9.76114 37.9255 12.5578 40.3739 15.9895 42.0005C23.3907 45.5051 31.7882 44.2867 37.8686 39.571C40.5913 37.5316 42.8643 34.8132 44.3998 31.5207C46.0125 28.065 46.6082 24.3948 46.3228 20.8432L46.1151 20.9188C46.1123 20.8807 46.1094 20.8427 46.1064 20.8047L38.7016 23.5401L38.7019 23.5408C38.584 25.1728 38.1783 26.8101 37.4571 28.3798C36.3023 30.895 34.5011 32.8986 32.3473 34.2821Z" fill="#DA2430"/>
<path d="M40.593 14.4722L40.704 14.4317V14.4315C41.8721 16.835 42.585 19.4475 42.7986 22.1227L35.342 24.8355C35.3434 24.817 35.3447 24.7985 35.346 24.78L35.205 24.8321C35.4081 22.0728 34.789 19.3285 33.4797 16.9457L40.5295 14.3396L40.5298 14.3389C40.551 14.3832 40.5721 14.4277 40.593 14.4722Z" fill="#E82429"/>
<path d="M14.3198 20.238L6.89819 22.9805C6.99329 24.1894 7.19809 25.3829 7.48695 26.5526L14.5363 23.9451C14.3084 22.7341 14.2264 21.4875 14.3226 20.2373" fill="#C22035"/>
<path d="M47.1172 11.9034C46.5997 10.8192 46.0006 9.77136 45.3071 8.78369L37.8873 11.5262C38.7507 12.4234 39.4748 13.4314 40.0675 14.5099L47.1161 11.9027L47.1172 11.9034Z" fill="#C22035"/>
<path d="M6.89792 22.9809L14.3013 20.269L14.271 21.7564L7.12836 24.4537L6.89685 22.9792L6.89792 22.9809Z" fill="#AC223B"/>
<path d="M37.8888 11.5039L45.4076 8.92383L46.189 10.1031L38.8836 12.6857L37.8899 11.5032L37.8888 11.5039Z" fill="#AC223B"/>
<path d="M7.71277 34.9683L15.1251 32.271L17.3668 34.3859L9.59371 37.3041L7.71313 34.9676L7.71277 34.9683Z" fill="#B92135"/>
<path d="M46.2309 20.8247L38.7025 23.5395L38.1479 26.553L46.175 23.6922L46.232 20.8251L46.2309 20.8247Z" fill="#B92135"/>
</g>
<defs>
<clipPath id="clip0_2027_11297">
<rect width="46.8179" height="43.3432" fill="white" transform="translate(0.623535 0.732422)"/>
</clipPath>
</defs>
</svg>
