<svg width="44" height="45" viewBox="0 0 44 45" fill="none" xmlns="http://www.w3.org/2000/svg">
<path fill-rule="evenodd" clip-rule="evenodd" d="M12.2274 10.2637C11.8687 10.2626 11.5112 10.3081 11.1642 10.3991V10.4465H11.2157C11.4642 10.8218 11.7413 11.1772 12.0446 11.5098C12.2532 11.9243 12.4347 12.3374 12.6419 12.7519C12.6677 12.7261 12.6934 12.699 12.6934 12.699C12.8858 12.5463 13.0364 12.3473 13.1311 12.1207C13.2259 11.894 13.2617 11.647 13.2352 11.4028C13.1217 11.2279 13.0177 11.047 12.9236 10.861C12.7679 10.6023 12.4306 10.4723 12.2234 10.265" fill="#5D87A1"/>
<path fill-rule="evenodd" clip-rule="evenodd" d="M37.9557 32.8667C36.2471 32.7466 34.5327 32.9942 32.9279 33.5927C32.5392 33.7484 31.9188 33.7484 31.8646 34.2401C32.0732 34.4473 32.0976 34.7819 32.2804 35.0704C32.6352 35.671 33.0912 36.2058 33.6281 36.6511C34.1699 37.0655 34.7117 37.4786 35.2874 37.8416C36.2965 38.4661 37.4383 38.8277 38.4216 39.4494C38.9932 39.8124 39.5621 40.2783 40.1337 40.6684C40.4181 40.8757 40.5983 41.2102 40.9613 41.3457V41.2671C40.8546 40.9793 40.7227 40.7014 40.5671 40.4368C40.3084 40.1795 40.0484 39.9451 39.7883 39.6864C39.0285 38.6818 38.1195 37.7993 37.0929 37.0696C36.2626 36.498 34.4476 35.7151 34.1131 34.767L34.0602 34.7142C34.6678 34.6281 35.2665 34.4885 35.8495 34.297C36.7299 34.064 37.5331 34.1168 38.4392 33.8906C38.8551 33.7863 39.6068 33.5276 39.6068 33.5276V33.1213C39.1436 32.6608 38.8117 32.0445 38.3241 31.6097C36.9975 30.4517 35.5838 29.3975 34.0954 28.4565C33.3004 27.9431 32.275 27.6127 31.4285 27.1752C31.1224 27.0207 30.6158 26.9449 30.4302 26.6875C30.0092 26.0699 29.6568 25.4081 29.3792 24.7141C28.6369 23.3054 27.9177 21.7437 27.2784 20.2538C26.9 19.2553 26.4635 18.2798 25.9713 17.3322C23.596 13.2938 20.1675 9.97713 16.0525 7.7371C15.0142 7.23453 13.9103 6.8807 12.7733 6.68603C12.1313 6.65894 11.492 6.60882 10.8513 6.58444C10.4377 6.3135 10.0444 6.01292 9.67427 5.68507C8.20873 4.75726 4.44329 2.76347 3.36513 5.40334C2.67435 7.0707 4.39182 8.70961 4.98102 9.55616C5.47783 10.1531 5.91557 10.7967 6.28809 11.4782C6.46823 11.9143 6.5197 12.3762 6.69443 12.8326C7.07041 14.0044 7.51685 15.1524 8.0313 16.2703C8.30645 16.8228 8.62341 17.3535 8.97943 17.8577C9.18666 18.1408 9.54424 18.2641 9.62145 18.7314C9.3374 19.3419 9.13868 19.9886 9.0309 20.6534C8.58317 22.0673 8.41839 23.5556 8.54598 25.0332C8.67357 26.5108 9.09103 27.9489 9.7745 29.2651C10.1808 29.9058 11.1588 31.3158 12.4658 30.7767C13.6185 30.3162 13.3625 28.8547 13.6957 27.5747C13.7716 27.2646 13.7214 27.0614 13.8745 26.8569V27.1061C13.8745 27.1061 14.5287 28.5432 14.8538 29.2732C15.7378 30.6128 16.836 31.798 18.1045 32.7813C18.6063 33.2194 19.0105 33.7579 19.291 34.362V34.8266H19.8694C19.8574 34.6171 19.7993 34.4129 19.6993 34.2284C19.5994 34.0439 19.46 33.8837 19.291 33.7593C18.8168 33.2711 18.3824 32.7457 17.9921 32.1881C16.9319 30.6781 15.9969 29.084 15.1965 27.4217C14.7901 26.609 14.4474 25.7177 14.1224 24.9064C13.9734 24.5935 13.9734 24.1208 13.7228 23.9583C13.2601 24.5057 12.8586 25.1021 12.5254 25.7367C12.121 27.0195 11.8856 28.3495 11.8252 29.6931C11.7263 29.7202 11.7751 29.6931 11.7263 29.7446C10.9285 29.5347 10.6536 28.6719 10.3529 27.9404C9.57609 25.6846 9.49773 23.247 10.128 20.9459C10.3014 20.3974 11.0531 18.6691 10.7524 18.1449C10.6021 17.6451 10.1023 17.3593 9.82868 16.9651C9.4794 16.4349 9.17883 15.8741 8.93067 15.2896C8.33605 13.8322 8.03536 12.2069 7.38792 10.7386C7.02952 10.0325 6.61222 9.35782 6.14045 8.7218C5.61859 8.08647 5.15826 7.403 4.76566 6.68061C4.64105 6.39211 4.46632 5.92075 4.66543 5.60651C4.67887 5.51922 4.72038 5.43869 4.78367 5.3771C4.84697 5.31552 4.92861 5.27623 5.01624 5.26519C5.3386 4.97804 6.26371 5.34374 6.58743 5.50086C7.45748 5.84338 8.28622 6.28274 9.05799 6.81064C9.40744 7.07341 10.231 7.73845 10.231 7.73845H10.4748C11.3037 7.9186 12.2356 7.78857 13.0158 8.02289C14.3294 8.46078 15.583 9.06143 16.7473 9.8108C20.1791 11.9985 22.969 15.0576 24.8322 18.6758C25.1437 19.2704 25.2751 19.8163 25.5595 20.4366C26.1013 21.7099 26.7786 23.0102 27.3204 24.2481C27.7983 25.473 28.4165 26.6383 29.1624 27.721C29.5498 28.2628 31.1061 28.5499 31.8064 28.8344C32.4145 29.0448 33.0113 29.2866 33.5943 29.559C34.476 30.1008 35.3551 30.7252 36.1854 31.3198C36.5985 31.6314 37.8947 32.2788 37.9733 32.7976" fill="#00758F"/>
</svg>
