<svg width="44" height="45" viewBox="0 0 44 45" fill="none" xmlns="http://www.w3.org/2000/svg">
<path fill-rule="evenodd" clip-rule="evenodd" d="M30.0584 15.4619C30.6019 17.0341 30.9933 18.6392 31.122 20.3028C31.2818 22.3667 31.2087 24.416 30.7735 26.446C30.7617 26.5019 30.7366 26.5544 30.718 26.6086C30.5815 26.6089 30.4424 26.592 30.309 26.6126C29.1817 26.7897 28.0555 26.9733 26.9292 27.1558C25.765 27.3444 24.5992 27.5255 23.437 27.727C23.0253 27.7981 22.5157 27.7131 22.3494 28.2827C22.3447 28.2983 22.2972 28.301 22.2698 28.3098L22.326 24.9063C22.3067 22.1689 22.2878 19.4315 22.2688 16.6941L22.8113 16.601C23.6984 16.4558 24.5856 16.3085 25.4735 16.1673C26.533 15.999 27.5936 15.8354 28.6538 15.6712C29.1214 15.5984 29.5897 15.5317 30.0584 15.4619Z" fill="#439934"/>
<path fill-rule="evenodd" clip-rule="evenodd" d="M21.1497 38.2312C20.5775 37.7392 19.9852 37.2689 19.4367 36.7515C16.4849 33.9673 14.3259 30.6905 13.2626 26.7399C12.9697 25.6526 12.7743 24.5476 12.7117 23.4241C12.6677 22.6378 12.604 21.8445 12.6595 21.0622C12.8075 18.9818 13.1082 16.9213 13.7184 14.9173L13.7519 14.8706C13.8112 14.9495 13.8965 15.0193 13.9267 15.1083C14.5223 16.8624 15.1135 18.6178 15.7017 20.3742C17.5499 25.8937 19.3957 31.4145 21.2469 36.9326C21.2831 37.0403 21.3769 37.1287 21.4443 37.2259L21.1497 38.2312Z" fill="#45A538"/>
<path fill-rule="evenodd" clip-rule="evenodd" d="M30.0585 15.4617C29.5899 15.5314 29.1212 15.5982 28.6536 15.6703C27.5934 15.8345 26.5328 15.9981 25.4733 16.1664C24.5854 16.3076 23.6982 16.4549 22.8111 16.6001L22.2686 16.6932L22.2645 16.3394C22.2466 16.0485 22.2158 15.758 22.2124 15.4671C22.189 13.6122 22.1745 11.7572 22.1514 9.90225C22.1372 8.74113 22.1159 7.58034 22.0922 6.41956C22.0776 5.6983 22.062 4.97671 22.0295 4.25646C22.0119 3.86942 21.9496 3.48441 21.9242 3.09737C21.91 2.8749 21.9296 2.65073 21.934 2.42725C22.2107 2.96328 22.4812 3.50338 22.7657 4.03535C23.215 4.87647 23.9309 5.49615 24.5753 6.17237C27.1227 8.84474 28.9313 11.9519 30.0585 15.4617Z" fill="#46A037"/>
<path fill-rule="evenodd" clip-rule="evenodd" d="M22.2696 28.3096C22.297 28.3008 22.3448 28.2981 22.3492 28.2825C22.5154 27.713 23.0251 27.798 23.4368 27.7269C24.599 27.5257 25.7648 27.3442 26.929 27.1556C28.0552 26.9731 29.1815 26.7896 30.3087 26.6125C30.4422 26.5915 30.5813 26.6087 30.7178 26.6084C30.5072 27.3601 30.3412 28.1281 30.0741 28.8592C29.7707 29.6885 29.4036 30.4978 29.0139 31.2912C28.4314 32.4773 27.7058 33.5836 26.8626 34.5971C26.2128 35.3786 25.4885 36.1009 24.7625 36.8144C24.3612 37.2089 23.8882 37.5302 23.448 37.8847L23.3339 37.8069L22.9228 37.4554L22.4975 36.5232C22.2046 35.4318 22.0508 34.3208 22.0255 33.1918L22.0332 33.0019L22.0911 32.1804C22.1104 31.9 22.1362 31.62 22.148 31.3389C22.1917 30.3292 22.2296 29.3194 22.2696 28.3096Z" fill="#409433"/>
<path fill-rule="evenodd" clip-rule="evenodd" d="M22.2696 28.3095C22.2296 29.3192 22.1917 30.329 22.1487 31.3391C22.1368 31.6202 22.1111 31.9002 22.0918 32.1806L21.8328 32.2784C21.2574 30.5847 20.6818 28.9088 20.1187 27.2286C19.1875 24.4489 18.2674 21.6648 17.3376 18.8844C16.5869 16.64 15.8301 14.398 15.0689 12.157C15.0333 12.0521 14.931 11.9701 14.8599 11.8773L16.5178 8.8291C16.5747 8.92798 16.6499 9.02042 16.6858 9.12675C17.4527 11.3965 18.2183 13.6666 18.9775 15.9391C19.9649 18.8952 20.9463 21.8537 21.933 24.8102C21.9723 24.9284 22.0373 25.0374 22.0992 25.1698L22.3261 24.9057C22.3072 26.0404 22.2882 27.1748 22.2696 28.3095Z" fill="#4FAA41"/>
<path fill-rule="evenodd" clip-rule="evenodd" d="M14.8603 11.8774C14.9314 11.9702 15.0333 12.0522 15.0692 12.1571C15.8304 14.3981 16.5872 16.6401 17.338 18.8845C18.2678 21.6649 19.1878 24.449 20.119 27.2287C20.6818 28.9086 21.2575 30.5848 21.8331 32.2785L22.0922 32.1807L22.0343 33.0022L21.9818 33.1914C21.8917 34.0908 21.8158 34.9922 21.7061 35.8896C21.6509 36.3392 21.5338 36.7808 21.4447 37.2261C21.3777 37.1289 21.2835 37.0405 21.2473 36.9328C19.3961 31.4144 17.5503 25.8939 15.7021 20.3744C15.1139 18.618 14.5227 16.8626 13.927 15.1085C13.8969 15.0195 13.8119 14.9497 13.7523 14.8708C14.1214 13.8729 14.4908 12.875 14.8603 11.8774Z" fill="#4AA73C"/>
<path fill-rule="evenodd" clip-rule="evenodd" d="M22.3258 24.9055L22.0989 25.1696C22.0369 25.0373 21.9719 24.9279 21.9326 24.81C20.9462 21.8536 19.9646 18.895 18.9772 15.9389C18.218 13.6664 17.4524 11.3963 16.6854 9.12658C16.6499 9.02025 16.5747 8.92747 16.5175 8.82893L18.5678 6.13184C18.6325 6.21818 18.7246 6.29505 18.7581 6.39223C19.3273 8.05858 19.8915 9.72695 20.4522 11.3963C20.976 12.9553 21.4921 14.5167 22.022 16.0737C22.0576 16.178 22.1812 16.2518 22.2638 16.3398L22.2679 16.6937C22.2875 19.4304 22.3068 22.1681 22.3258 24.9055Z" fill="#57AE47"/>
<path fill-rule="evenodd" clip-rule="evenodd" d="M22.2646 16.3396C22.1819 16.2515 22.0583 16.1777 22.0228 16.0734C21.4929 14.5165 20.9768 12.9551 20.453 11.3961C19.8922 9.7267 19.3281 8.05866 18.7588 6.39198C18.7253 6.2948 18.6332 6.21793 18.5685 6.13159C19.2353 5.47873 19.8814 4.80251 20.5749 4.17979C21.1915 3.62649 21.6872 3.03323 21.7099 2.15891C21.7109 2.12268 21.7299 2.08645 21.759 1.98486L21.9347 2.4271C21.9303 2.65093 21.9104 2.87475 21.9249 3.09723C21.9503 3.48427 22.0126 3.86928 22.0302 4.25632C22.0627 4.97656 22.0783 5.69815 22.0929 6.41941C22.1162 7.5802 22.1376 8.74098 22.1521 9.9021C22.1748 11.7571 22.1897 13.612 22.2131 15.467C22.2158 15.7585 22.2463 16.0487 22.2646 16.3396Z" fill="#60B24F"/>
<path fill-rule="evenodd" clip-rule="evenodd" d="M21.4439 37.226C21.5329 36.7807 21.6501 36.3388 21.7053 35.8895C21.8154 34.9925 21.8909 34.0907 21.9809 33.1914L22.0033 33.188L22.0256 33.1917C22.051 34.3207 22.2048 35.4317 22.4977 36.523C22.4381 36.6016 22.3538 36.6717 22.3223 36.7604C22.0761 37.4546 21.8441 38.1542 21.5966 38.8483C21.5627 38.9431 21.4686 39.017 21.4022 39.1003L21.1493 38.2314L21.4439 37.226Z" fill="#A9AA88"/>
<path fill-rule="evenodd" clip-rule="evenodd" d="M21.4026 39.1002C21.469 39.0169 21.5634 38.9431 21.597 38.8482C21.8445 38.1541 22.0768 37.4548 22.3226 36.7603C22.3541 36.6716 22.4381 36.6015 22.498 36.5229L22.923 37.4555C22.839 37.5747 22.7232 37.682 22.6765 37.8148L21.8624 40.2051C21.8289 40.3009 21.7145 40.3686 21.6379 40.4496L21.4026 39.1002Z" fill="#B6B598"/>
<path fill-rule="evenodd" clip-rule="evenodd" d="M21.6381 40.4496C21.715 40.369 21.8291 40.301 21.8626 40.2051L22.6767 37.8148C22.7231 37.6824 22.8392 37.5748 22.9232 37.4556L23.3346 37.8067C23.1358 38.0031 23.0254 38.23 23.0918 38.5168L22.9669 38.9258C22.91 38.9959 22.8277 39.0569 22.7996 39.1371C22.5155 39.9508 22.2442 40.7689 21.9581 41.5826C21.9219 41.6859 21.8213 41.7669 21.7502 41.8576C21.7133 41.3879 21.6757 40.9193 21.6381 40.4496Z" fill="#C2C1A7"/>
<path fill-rule="evenodd" clip-rule="evenodd" d="M21.7505 41.8571C21.8213 41.766 21.9219 41.685 21.9584 41.5821C22.2446 40.7687 22.5158 39.9506 22.7999 39.1366C22.828 39.0567 22.9099 38.9954 22.9672 38.9253L22.7948 40.8029C22.7488 40.8561 22.6821 40.9025 22.66 40.9645C22.4653 41.511 22.2818 42.0616 22.0864 42.6081C22.0461 42.7209 21.9689 42.8204 21.9086 42.9257C21.8551 42.8556 21.7593 42.7879 21.7549 42.7148C21.7376 42.43 21.7495 42.1432 21.7505 41.8571Z" fill="#CECDB7"/>
<path fill-rule="evenodd" clip-rule="evenodd" d="M21.9082 42.926C21.9685 42.8204 22.0457 42.7208 22.086 42.6084C22.2817 42.0622 22.4649 41.5116 22.6596 40.9647C22.6816 40.9028 22.7487 40.8567 22.7944 40.8032L22.7984 42.0358L22.386 43.0936L21.9082 42.926Z" fill="#DBDAC7"/>
<path fill-rule="evenodd" clip-rule="evenodd" d="M22.3861 43.094L22.7985 42.0361L22.8835 43.2877L22.3861 43.094Z" fill="#EBE9DC"/>
<path fill-rule="evenodd" clip-rule="evenodd" d="M23.0917 38.5167C23.0254 38.2299 23.1354 38.0027 23.3345 37.8066L23.4486 37.8845L23.0917 38.5167Z" fill="#CECDB7"/>
<path fill-rule="evenodd" clip-rule="evenodd" d="M22.0257 33.1921L22.0033 33.1883L21.981 33.1917L22.0334 33.0024L22.0257 33.1921Z" fill="#4FAA41"/>
</svg>
