<svg width="40" height="45" viewBox="0 0 40 45" fill="none" xmlns="http://www.w3.org/2000/svg">
<g clip-path="url(#clip0_2027_11190)">
<path fill-rule="evenodd" clip-rule="evenodd" d="M23.5363 5.92575L32.4376 11.0651C32.6882 10.7996 32.981 10.5652 33.3131 10.3722C35.1592 9.31101 37.5139 9.94112 38.5862 11.7872C39.6474 13.6333 39.0173 15.988 37.1712 17.0602C36.8416 17.2497 36.4954 17.3853 36.1431 17.4696V27.7523C36.4916 27.8368 36.834 27.9715 37.1601 28.159C39.0173 29.2313 39.6474 31.5859 38.5751 33.432C37.5139 35.2781 35.1482 35.9082 33.3021 34.847C32.9345 34.6357 32.6152 34.3727 32.3478 34.0724L23.5008 39.1804C23.6273 39.5626 23.6957 39.9713 23.6957 40.3964C23.6957 42.5188 21.9712 44.2544 19.8377 44.2544C17.7041 44.2544 15.9796 42.5299 15.9796 40.3964C15.9796 40.0171 16.0341 39.6508 16.1357 39.3048L7.23677 34.1668C6.9888 34.4271 6.70008 34.6571 6.37325 34.847C4.51609 35.9082 2.16147 35.2781 1.10024 33.432C0.0390038 31.5859 0.669112 29.2313 2.51522 28.159C2.84163 27.9714 3.18393 27.8366 3.53224 27.7521V17.4696C3.1799 17.3853 2.83375 17.2497 2.50416 17.0602C0.658057 15.999 0.0279493 13.6333 1.08918 11.7872C2.15042 9.94112 4.51609 9.31101 6.3622 10.3722C6.69252 10.5641 6.98391 10.797 7.23365 11.0607L16.1374 5.92003C16.0347 5.57238 15.9796 5.20416 15.9796 4.82287C15.9796 2.68935 17.7041 0.964844 19.8377 0.964844C21.9712 0.964844 23.6957 2.68935 23.6957 4.82287C23.6957 5.20625 23.64 5.57642 23.5363 5.92575ZM22.6089 7.50919L31.5314 12.6608C31.2556 13.6294 31.3568 14.7035 31.8982 15.6453C32.4413 16.5901 33.3261 17.2164 34.3081 17.4605V27.756C34.258 27.7683 34.2082 27.7816 34.1587 27.7958L22.5053 7.61209C22.5405 7.57845 22.575 7.54414 22.6089 7.50919ZM17.1725 7.61443L5.51927 27.7978C5.46889 27.7832 5.41822 27.7696 5.36729 27.757V17.4605C6.34925 17.2164 7.23405 16.5901 7.77718 15.6453C8.31961 14.7016 8.42017 13.6252 8.14232 12.655L17.0623 7.5049C17.0983 7.54214 17.135 7.57866 17.1725 7.61443ZM20.9156 8.52879L32.5662 28.7076C32.3055 28.9562 32.0757 29.2459 31.8871 29.574C31.6996 29.9001 31.5649 30.2425 31.4804 30.591H8.19514C8.11063 30.2427 7.97587 29.9004 7.78823 29.574C7.59889 29.248 7.36957 28.9599 7.11013 28.7124L18.7629 8.52973C19.104 8.62817 19.4646 8.68091 19.8377 8.68091C20.2119 8.68091 20.5736 8.62783 20.9156 8.52879ZM22.6908 37.7972L31.5554 32.6791C31.5288 32.5956 31.505 32.5112 31.4841 32.426H8.19021C8.17786 32.476 8.16451 32.5258 8.15018 32.5753L17.0583 37.7185C17.7596 36.9906 18.745 36.5383 19.8377 36.5383C20.9692 36.5383 21.9856 37.0234 22.6908 37.7972Z" fill="#E535AB"/>
</g>
<defs>
<clipPath id="clip0_2027_11190">
<rect width="38.5273" height="43.3432" fill="white" transform="translate(0.574036 0.964844)"/>
</clipPath>
</defs>
</svg>
