<svg width="52" height="45" viewBox="0 0 52 45" fill="none" xmlns="http://www.w3.org/2000/svg">
<g clip-path="url(#clip0_2027_11194)">
<path d="M49.216 34.2489C46.5245 35.6519 32.5813 41.3848 29.6128 42.9322C26.6445 44.48 24.9955 44.465 22.6505 43.344C20.3056 42.2229 5.46756 36.2294 2.79478 34.9519C1.45879 34.3134 0.756409 33.7745 0.756409 33.2654V28.1675C0.756409 28.1675 20.0735 23.9621 23.1921 22.8434C26.3106 21.7245 27.3926 21.6841 30.0465 22.6562C32.7005 23.6285 48.5692 26.4916 51.1921 27.4523C51.1921 27.4523 51.1909 32.0055 51.1909 32.4781C51.1913 32.9821 50.5861 33.5349 49.216 34.2489Z" fill="#912626"/>
<path d="M49.215 29.1811C46.5236 30.5835 32.5809 36.3166 29.6125 37.8639C26.6443 39.4119 24.9953 39.3967 22.6504 38.2757C20.3054 37.1555 5.46803 31.1609 2.79534 29.8841C0.122645 28.6064 0.0664956 27.7272 2.6921 26.6991C5.31752 25.6707 20.0735 19.8815 23.1924 18.7626C26.3108 17.6442 27.3926 17.6034 30.0464 18.5758C32.7003 19.5479 46.5599 25.0645 49.1825 26.025C51.8058 26.9866 51.9065 27.7782 49.215 29.1811Z" fill="#C6302B"/>
<path d="M49.216 26.0003C46.5245 27.4033 32.5813 33.1362 29.6128 34.6842C26.6445 36.2314 24.9955 36.2164 22.6505 35.0954C20.3054 33.9749 5.46756 27.9808 2.79478 26.7033C1.45879 26.0647 0.756409 25.5265 0.756409 25.0174V19.9189C0.756409 19.9189 20.0735 15.7137 23.1921 14.5948C26.3106 13.4761 27.3926 13.4355 30.0465 14.4076C32.7005 15.3799 48.5692 18.2424 51.1921 19.2033C51.1921 19.2033 51.1909 23.7565 51.1909 24.2297C51.1913 24.7335 50.5861 25.2863 49.216 26.0003Z" fill="#912626"/>
<path d="M49.215 20.9325C46.5236 22.3352 32.5809 28.0679 29.6125 29.6159C26.6443 31.1632 24.9953 31.1481 22.6504 30.0271C20.3054 28.9068 5.46803 22.9125 2.79534 21.6354C0.122645 20.3582 0.0664956 19.4787 2.6921 18.4503C5.31752 17.4225 20.0735 11.6328 23.1924 10.5142C26.3108 9.39553 27.3926 9.35494 30.0464 10.3272C32.7003 11.2993 46.5599 16.8155 49.1825 17.7763C51.8058 18.7375 51.9065 19.5297 49.215 20.9325Z" fill="#C6302B"/>
<path d="M49.216 17.4456C46.5245 18.8486 32.5813 24.5817 29.6128 26.1297C26.6445 27.6771 24.9955 27.6619 22.6505 26.5409C20.3054 25.4204 5.46756 19.4261 2.79478 18.149C1.45879 17.5102 0.756409 16.9718 0.756409 16.4631V11.3644C0.756409 11.3644 20.0735 7.15935 23.1921 6.04067C26.3106 4.92179 27.3926 4.8814 30.0465 5.8535C32.7005 6.8258 48.5692 9.68831 51.1921 10.6492C51.1921 10.6492 51.1909 15.2023 51.1909 15.6754C51.1913 16.1788 50.5861 16.7316 49.216 17.4456Z" fill="#912626"/>
<path d="M49.215 12.3776C46.5236 13.7803 32.5809 19.5134 29.6125 21.061C26.6443 22.6083 24.9953 22.5931 22.6504 21.4725C20.3056 20.3519 5.46803 14.358 2.79534 13.0807C0.122645 11.8035 0.0664956 10.9238 2.6921 9.89558C5.31752 8.86756 20.0735 3.07849 23.1924 1.95945C26.3108 0.840607 27.3926 0.800416 30.0464 1.77268C32.7003 2.74495 46.5599 8.26115 49.1825 9.22199C51.8058 10.1826 51.9065 10.9748 49.215 12.3776Z" fill="#C6302B"/>
<path d="M32.1375 7.41853L27.8014 7.86873L26.8306 10.2044L25.2626 7.59799L20.2556 7.14797L23.9917 5.80068L22.8708 3.73242L26.3686 5.10044L29.6663 4.02077L28.7751 6.1594L32.1375 7.41853Z" fill="white"/>
<path d="M26.5715 18.7502L18.4788 15.3937L30.0753 13.6138L26.5715 18.7502Z" fill="white"/>
<path d="M15.3516 8.7168C18.7747 8.7168 21.5497 9.79256 21.5497 11.1193C21.5497 12.4463 18.7747 13.5219 15.3516 13.5219C11.9286 13.5219 9.15344 12.4463 9.15344 11.1193C9.15344 9.79256 11.9286 8.7168 15.3516 8.7168Z" fill="white"/>
<path d="M37.2622 8.05664L44.1254 10.7688L37.2681 13.4783L37.2622 8.05664Z" fill="#621B1C"/>
<path d="M29.6693 11.0601L37.2622 8.05664L37.268 13.4783L36.5236 13.7696L29.6693 11.0601Z" fill="#9A2928"/>
</g>
<defs>
<clipPath id="clip0_2027_11194">
<rect width="50.4357" height="43.3432" fill="white" transform="translate(0.75647 0.964844)"/>
</clipPath>
</defs>
</svg>
