<svg width="43" height="45" viewBox="0 0 43 45" fill="none" xmlns="http://www.w3.org/2000/svg">
<g clip-path="url(#clip0_2027_11209)">
<path d="M41.9629 26.9189C41.7109 26.1557 41.0507 25.6241 40.197 25.4965C39.7944 25.4364 39.3334 25.462 38.7878 25.5745C37.837 25.7707 37.1315 25.8453 36.6167 25.8599C38.5599 22.5788 40.1402 18.837 41.0499 15.3149C42.5208 9.61981 41.7348 7.02532 40.8162 5.85169C38.3853 2.74556 34.8386 1.0768 30.5596 1.02565C28.2772 0.997788 26.2733 1.44847 25.2281 1.77247C24.2548 1.60086 23.2082 1.50496 22.1101 1.4872C20.052 1.45439 18.2334 1.90303 16.6794 2.82516C15.8189 2.53435 14.4383 2.12424 12.8438 1.86245C9.09358 1.24676 6.07113 1.72656 3.86035 3.28836C1.18326 5.17941 -0.0578339 8.46491 0.171728 13.0537C0.244528 14.5107 1.05959 18.9434 2.34281 23.1475C3.08032 25.5637 3.86675 27.5704 4.68027 29.112C5.8339 31.298 7.06829 32.5854 8.45411 33.0476C9.23093 33.3065 10.6422 33.4877 12.1266 32.2516C12.3147 32.4793 12.5656 32.7058 12.8989 32.916C13.3219 33.1829 13.8393 33.4009 14.3558 33.5301C16.2179 33.9956 17.962 33.8791 19.4499 33.2267C19.459 33.4913 19.4661 33.7442 19.4721 33.9625C19.482 34.3167 19.4917 34.6639 19.5047 34.9886C19.5929 37.1844 19.7423 38.8917 20.1849 40.0862C20.2091 40.152 20.2419 40.2521 20.2764 40.3582C20.4971 41.0344 20.8665 42.1662 21.8058 43.0527C22.7787 43.9708 23.9553 44.2525 25.033 44.2524C25.5734 44.2524 26.0891 44.1816 26.5414 44.0846C28.1537 43.7391 29.9848 43.2126 31.3094 41.3266C32.5616 39.5436 33.1704 36.8582 33.2806 32.6267C33.2949 32.5071 33.3081 32.3928 33.3208 32.2839C33.3293 32.2105 33.338 32.1353 33.3469 32.0604L33.642 32.0863L33.718 32.0914C35.3601 32.1663 37.368 31.818 38.6012 31.2452C39.5756 30.793 42.6981 29.1446 41.9629 26.9189Z" fill="black"/>
<path d="M39.1551 27.3519C34.2724 28.3591 33.9368 26.7059 33.9368 26.7059C39.0921 19.0563 41.2471 9.34628 39.3873 6.96981C34.3137 0.487229 25.5309 3.55307 25.3844 3.63267L25.3372 3.64111C24.3725 3.44086 23.293 3.32157 22.0796 3.30177C19.8703 3.26556 18.1945 3.88096 16.9228 4.84532C16.9228 4.84532 1.2552 -1.60911 1.98388 12.963C2.1389 16.0631 6.42719 36.4197 11.5421 30.2711C13.4116 28.0227 15.2179 26.1217 15.2179 26.1217C16.1151 26.7177 17.1891 27.0217 18.3151 26.9125L18.4026 26.8382C18.3754 27.1174 18.3878 27.3904 18.4376 27.7137C17.1199 29.1859 17.5071 29.4444 14.873 29.9866C12.2077 30.5359 13.7735 31.5138 14.7958 31.7694C16.0351 32.0793 18.9024 32.5184 20.8397 29.8063L20.7624 30.1158C21.2787 30.5293 21.6413 32.8056 21.5805 34.869C21.5198 36.9325 21.4792 38.3492 21.886 39.4558C22.2928 40.5623 22.6982 43.0521 26.161 42.3101C29.0544 41.6901 30.5538 40.0832 30.7624 37.4029C30.9104 35.4974 31.2454 35.7791 31.2666 34.0755L31.5353 33.269C31.8451 30.6859 31.5845 29.8526 33.3671 30.2402L33.8003 30.2783C35.1123 30.338 36.8295 30.0672 37.8374 29.5988C40.0076 28.5916 41.2947 26.9101 39.1549 27.3519H39.1551Z" fill="#336791"/>
<path d="M17.8399 14.3495C17.4 14.2882 17.0014 14.3449 16.7998 14.4975C16.6864 14.5834 16.6513 14.6829 16.6419 14.7514C16.6166 14.9328 16.7437 15.1334 16.8218 15.2368C17.0427 15.5297 17.3655 15.731 17.6851 15.7754C17.7314 15.7818 17.7774 15.7849 17.8232 15.7849C18.3561 15.7849 18.8404 15.37 18.8832 15.0638C18.9365 14.6803 18.3798 14.4246 17.8399 14.3495Z" fill="white"/>
<path d="M32.4163 14.3615C32.3744 14.0609 31.8393 13.9752 31.3316 14.0457C30.8248 14.1164 30.3331 14.3452 30.3742 14.6465C30.4072 14.8808 30.8301 15.2808 31.331 15.2807C31.3732 15.2807 31.4159 15.2779 31.4589 15.2719C31.7932 15.2256 32.0385 15.0133 32.1549 14.8909C32.3325 14.7045 32.4351 14.4966 32.4163 14.3615Z" fill="white"/>
<path d="M40.7798 27.2376C40.5937 26.6746 39.9945 26.4934 38.9989 26.6991C36.0428 27.3092 34.9842 26.8865 34.6365 26.6306C36.9343 23.1302 38.8244 18.8991 39.8441 14.9514C40.3272 13.0814 40.5941 11.3448 40.6158 9.92933C40.6399 8.37549 40.3754 7.23389 39.8296 6.53647C37.6292 3.72485 34.3999 2.21673 30.4907 2.17528C27.8033 2.14509 25.5327 2.8329 25.0926 3.02626C24.1656 2.79573 23.155 2.65421 22.055 2.63615C20.0374 2.60354 18.2936 3.08654 16.8498 4.07099C16.2226 3.83764 14.6018 3.28125 12.6198 2.962C9.19298 2.41018 6.46998 2.82825 4.52671 4.20494C2.20799 5.84769 1.13754 8.78414 1.34497 12.9326C1.41476 14.3284 2.20993 18.6219 3.465 22.7338C5.11697 28.1458 6.9126 31.2096 8.8021 31.8397C9.02321 31.9135 9.2783 31.9651 9.55941 31.9651C10.2487 31.9651 11.0936 31.6544 11.9729 30.5975C13.4332 28.8406 14.7967 27.3684 15.2993 26.8334C16.0421 27.2322 16.8579 27.4548 17.6926 27.4771C17.6941 27.4989 17.6963 27.5208 17.6982 27.5425C17.5308 27.7411 17.3934 27.9151 17.2764 28.0638C16.6982 28.7978 16.5778 28.9506 14.7164 29.3339C14.187 29.4431 12.7807 29.7329 12.7602 30.7186C12.7377 31.7956 14.4223 32.2479 14.6143 32.2959C15.2832 32.4633 15.9275 32.5459 16.5421 32.5459C18.0367 32.5458 19.3519 32.0546 20.403 31.1043C20.3706 34.9437 20.5307 38.7271 20.9917 39.8798C21.3692 40.8234 22.2916 43.1297 25.2052 43.1295C25.6326 43.1295 26.1033 43.0798 26.621 42.9689C29.6617 42.3169 30.9821 40.973 31.4929 38.0102C31.7663 36.4267 32.2354 32.6454 32.4559 30.6172C32.9215 30.7624 33.521 30.8289 34.169 30.8288C35.5206 30.8288 37.0801 30.5417 38.0581 30.0877C39.1567 29.5775 41.1394 28.3253 40.7798 27.2376ZM33.5386 13.5319C33.5285 14.1307 33.4461 14.6742 33.3587 15.2417C33.2648 15.8519 33.1675 16.4829 33.143 17.2488C33.1189 17.9942 33.212 18.7692 33.302 19.5185C33.4839 21.0322 33.6706 22.5906 32.9479 24.1283C32.8356 23.9288 32.7272 23.7112 32.6278 23.4702C32.538 23.2525 32.343 22.9027 32.0731 22.4187C31.0224 20.5346 28.5622 16.1226 29.8216 14.3222C30.1967 13.7862 31.1487 13.2353 33.5386 13.5319ZM30.6418 3.38783C34.1444 3.4652 36.9149 4.77549 38.8767 7.28214C40.3812 9.20483 38.7245 17.9534 33.9283 25.5008C33.8809 25.4406 33.8327 25.3799 33.7828 25.3176C33.7629 25.2926 33.7426 25.2673 33.7221 25.2416C34.9615 23.1948 34.7191 21.1697 34.5034 19.3742C34.4148 18.6374 34.3311 17.9414 34.3524 17.2877C34.3744 16.5947 34.4661 16.0005 34.5546 15.4259C34.6636 14.7177 34.7743 13.9851 34.7438 13.1213C34.7666 13.0307 34.7758 12.9236 34.7639 12.7966C34.6858 11.9682 33.7402 9.48943 31.8126 7.24554C30.7584 6.01843 29.2208 4.64504 27.1214 3.71873C28.0244 3.53159 29.2593 3.35706 30.6418 3.38783ZM11.0425 29.8239C10.0739 30.9885 9.40488 30.7653 9.18493 30.692C7.75155 30.2139 6.08851 27.1845 4.62222 22.3806C3.35347 18.2239 2.61198 14.0442 2.55335 12.8721C2.36805 9.16532 3.26659 6.5819 5.22413 5.19366C8.40985 2.93444 13.6476 4.28667 15.7521 4.97254C15.7219 5.00234 15.6904 5.03029 15.6604 5.06058C12.2069 8.54846 12.2888 14.5076 12.2973 14.8718C12.297 15.0123 12.3087 15.2113 12.3249 15.485C12.3843 16.4872 12.4949 18.3527 12.1995 20.4652C11.9249 22.4283 12.53 24.3497 13.8594 25.7368C13.9971 25.8803 14.1407 26.0152 14.2892 26.142C13.6973 26.7758 12.4113 28.1771 11.0425 29.8239ZM14.733 24.8996C13.6615 23.7817 13.1749 22.2266 13.3978 20.6327C13.7098 18.4011 13.5946 16.4575 13.5327 15.4134C13.5241 15.2673 13.5164 15.1393 13.5119 15.0382C14.0164 14.5909 16.3544 13.3381 18.0217 13.7202C18.7828 13.8945 19.2462 14.4125 19.439 15.3038C20.4367 19.9177 19.5711 21.8407 18.8756 23.386C18.7323 23.7044 18.5969 24.0053 18.4812 24.3167L18.3916 24.5573C18.1646 25.1658 17.9535 25.7315 17.8227 26.2688C16.6837 26.2653 15.5756 25.7788 14.733 24.8996ZM14.9079 31.122C14.5753 31.0389 14.2762 30.8946 14.1007 30.7749C14.2472 30.7059 14.5081 30.6121 14.9606 30.519C17.1503 30.0681 17.4884 29.75 18.2269 28.8123C18.3962 28.5974 18.5881 28.3537 18.8539 28.0569C18.854 28.0567 18.8541 28.0566 18.8542 28.0565C19.2501 27.6133 19.4312 27.6884 19.7595 27.8246C20.0257 27.9348 20.2849 28.2683 20.39 28.6354C20.4397 28.8087 20.4956 29.1379 20.3128 29.3939C18.7701 31.5538 16.5223 31.526 14.9079 31.122ZM26.3673 41.7858C23.6886 42.3598 22.7401 40.993 22.1151 39.4305C21.7117 38.4217 21.5135 33.8729 21.6542 28.8496C21.656 28.7827 21.6465 28.7182 21.6281 28.6575C21.612 28.5404 21.5874 28.4218 21.5532 28.3025C21.3439 27.5716 20.8342 26.9602 20.2227 26.7068C19.9798 26.6061 19.5338 26.4214 18.9979 26.5585C19.1122 26.0876 19.3104 25.556 19.5252 24.9802L19.6154 24.7379C19.7169 24.4648 19.8442 24.182 19.9789 23.8826C20.7067 22.2657 21.7035 20.0511 20.6217 15.048C20.2164 13.1742 18.8633 12.2591 16.812 12.4716C15.5822 12.5989 14.4572 13.0951 13.896 13.3796C13.7754 13.4407 13.665 13.4997 13.5619 13.5573C13.7185 11.6691 14.3103 8.14069 16.5238 5.90826C17.9174 4.50274 19.7735 3.80862 22.035 3.84599C26.4908 3.91898 29.3481 6.20567 30.9607 8.11118C32.3502 9.75325 33.1027 11.4073 33.403 12.2993C31.1447 12.0697 29.6089 12.5156 28.8302 13.6286C27.1364 16.0499 29.7569 20.7494 31.0163 23.008C31.2472 23.4219 31.4466 23.7796 31.5093 23.9316C31.9194 24.9256 32.4504 25.5891 32.8381 26.0736C32.9569 26.222 33.0722 26.366 33.1598 26.4917C32.4759 26.6889 31.2473 27.1444 31.3593 29.4217C31.269 30.5645 30.6268 35.9144 30.3006 37.8046C29.8701 40.3017 28.9511 41.2319 26.3673 41.7858ZM37.5486 28.9903C36.8492 29.3149 35.6788 29.5585 34.5669 29.6107C33.3388 29.6683 32.7137 29.4732 32.5667 29.3532C32.4975 27.9341 33.0259 27.7858 33.5849 27.6288C33.6727 27.604 33.7584 27.5801 33.8411 27.5511C33.8926 27.593 33.9489 27.6345 34.0105 27.6752C34.9976 28.3267 36.7582 28.397 39.2436 27.884C39.2527 27.882 39.2618 27.8803 39.2708 27.8785C38.9357 28.1919 38.362 28.6126 37.5486 28.9903Z" fill="white"/>
</g>
<defs>
<clipPath id="clip0_2027_11209">
<rect width="42.0297" height="43.3432" fill="white" transform="translate(0.0960693 0.964844)"/>
</clipPath>
</defs>
</svg>
