<svg width="44" height="45" viewBox="0 0 44 45" fill="none" xmlns="http://www.w3.org/2000/svg">
<path d="M17.5614 19.7784L26.5605 23.8784L35.6355 15.9222C35.7695 15.2649 35.8335 14.5952 35.8265 13.9244C35.8282 11.7586 35.1363 9.64921 33.8521 7.90529C32.5678 6.16137 30.7588 4.8746 28.6901 4.23354C26.6214 3.59248 24.4017 3.63084 22.3564 4.34298C20.3111 5.05512 18.5476 6.40362 17.3244 8.19086L15.8074 16.0265L17.5614 19.7784Z" fill="#FED10A"/>
<path d="M8.24948 29.299C8.11555 29.9678 8.05154 30.6487 8.05849 31.3307C8.06149 33.5052 8.76084 35.6215 10.054 37.3696C11.3472 39.1177 13.1663 40.4056 15.2447 41.0447C17.3231 41.6838 19.5516 41.6404 21.6035 40.9209C23.6555 40.2015 25.4231 38.8437 26.6473 37.0466L28.1372 29.2462L26.1475 25.4252L17.1132 21.3076L8.24948 29.299Z" fill="#24BBB1"/>
<path d="M8.19797 13.7322L14.3635 15.1869L15.718 8.18558C14.8805 7.54799 13.8589 7.19905 12.8063 7.19106C11.7537 7.18307 10.7269 7.51647 9.87981 8.14127C9.03271 8.76607 8.41094 9.64862 8.10772 10.6566C7.8045 11.6646 7.83617 12.7437 8.19797 13.7322Z" fill="#EF5098"/>
<path d="M7.65892 15.21C6.32512 15.6484 5.15992 16.4893 4.32355 17.6171C3.48719 18.7448 3.02075 20.1039 2.98838 21.5076C2.95601 22.9112 3.3593 24.2904 4.14279 25.4555C4.92627 26.6206 6.05147 27.5143 7.36365 28.0138L16.016 20.1985L14.4354 16.8123L7.65892 15.21Z" fill="#17A8E0"/>
<path d="M28.2117 37.0465C29.0484 37.6821 30.0685 38.0294 31.1192 38.0364C32.1699 38.0435 33.1946 37.71 34.0398 37.0858C34.885 36.4616 35.5052 35.5804 35.8076 34.5741C36.1099 33.5678 36.0781 32.4907 35.7168 31.504L29.5661 30.0615L28.2117 37.0465Z" fill="#93C83E"/>
<path d="M29.4619 28.4473L36.2342 30.028C37.57 29.5911 38.7375 28.7508 39.5757 27.6227C40.414 26.4946 40.8817 25.1343 40.9146 23.7293C40.9474 22.3242 40.5437 20.9436 39.7591 19.7775C38.9744 18.6115 37.8475 17.7175 36.5336 17.2188L27.674 24.984L29.4619 28.4473Z" fill="#0779A1"/>
</svg>
