<svg width="44" height="44" viewBox="0 0 44 44" fill="none" xmlns="http://www.w3.org/2000/svg">
<path d="M8.18439 33.8203L8.41465 33.4993L19.2775 12.8924L19.3006 12.6743L14.5125 3.68058C14.4248 3.51611 14.2877 3.38337 14.1204 3.30114C13.9532 3.21891 13.7643 3.19134 13.5806 3.22234C13.3968 3.25335 13.2274 3.34135 13.0964 3.4739C12.9654 3.60645 12.8794 3.77683 12.8506 3.96095L8.18439 33.8203Z" fill="#FFC24A"/>
<path d="M8.31982 33.5765L8.4932 33.2379L19.2437 12.8449L14.4678 3.816C14.389 3.65898 14.2615 3.53171 14.1043 3.45325C13.9472 3.37478 13.7688 3.34936 13.596 3.38079C13.4231 3.41221 13.2651 3.49879 13.1457 3.62755C13.0262 3.75631 12.9516 3.92033 12.9332 4.09502L8.31982 33.5765Z" fill="#FFA712"/>
<path d="M22.791 19.4764L26.356 15.8193L22.7897 9.01849C22.7112 8.87213 22.5945 8.74979 22.4519 8.66451C22.3094 8.57922 22.1464 8.53418 21.9804 8.53418C21.8143 8.53418 21.6513 8.57922 21.5088 8.66451C21.3663 8.74979 21.2496 8.87213 21.1711 9.01849L19.2653 12.6512V12.9614L22.791 19.4764Z" fill="#F4BD62"/>
<path d="M22.7274 19.3273L26.1935 15.7786L22.7274 9.16877C22.6706 9.02569 22.5737 8.90208 22.4483 8.81284C22.3229 8.7236 22.1744 8.67253 22.0206 8.6658C21.8669 8.65907 21.7144 8.69697 21.5817 8.77491C21.449 8.85286 21.3417 8.96753 21.2727 9.10511L19.3574 12.8015L19.3005 12.9897L22.7274 19.3273Z" fill="#FFA50E"/>
<path d="M8.18707 33.8216L8.29137 33.716L8.66927 33.5629L22.5662 19.7175L22.7423 19.238L19.2762 12.6309L8.18707 33.8216Z" fill="#F6820C"/>
<path d="M23.2353 40.8038L35.8157 33.789L32.2209 11.6691C32.1951 11.5132 32.1269 11.3673 32.0237 11.2476C31.9205 11.1279 31.7863 11.039 31.6358 10.9906C31.4854 10.9422 31.3245 10.9361 31.1708 10.9731C31.0172 11.0102 30.8767 11.0888 30.7648 11.2004L8.18439 33.8202L20.6902 40.8025C21.079 41.0194 21.5169 41.1333 21.9621 41.1333C22.4073 41.1333 22.8452 41.0194 23.2339 40.8025" fill="#FDE068"/>
<path d="M35.7005 33.7306L32.1355 11.7773C32.1292 11.6282 32.0789 11.4842 31.9907 11.3638C31.9026 11.2433 31.7807 11.1516 31.6405 11.1004C31.5003 11.0492 31.348 11.0408 31.203 11.0762C31.0579 11.1116 30.9267 11.1892 30.8258 11.2992L8.31982 33.778L20.6875 40.6859C21.0732 40.901 21.5076 41.014 21.9492 41.014C22.3909 41.014 22.8252 40.901 23.2109 40.6859L35.7005 33.7306Z" fill="#FCCA3F"/>
<path d="M23.2353 40.5928C22.8465 40.8097 22.4087 40.9236 21.9635 40.9236C21.5182 40.9236 21.0804 40.8097 20.6916 40.5928L8.28733 33.7147L8.18439 33.8204L20.6902 40.8027C21.079 41.0197 21.5169 41.1335 21.9621 41.1335C22.4073 41.1335 22.8452 41.0197 23.2339 40.8027L35.8157 33.7892L35.7845 33.5996L23.2353 40.5928Z" fill="#EEAB37"/>
</svg>
