<svg width="44" height="44" viewBox="0 0 44 44" fill="none" xmlns="http://www.w3.org/2000/svg">
<path fill-rule="evenodd" clip-rule="evenodd" d="M23.3636 4.83451C23.3636 4.20646 22.9578 3.65034 22.3597 3.45868C21.7616 3.267 21.1082 3.48367 20.7432 3.99478L6.29543 24.2216C5.98085 24.662 5.93881 25.2412 6.18644 25.7225C6.43407 26.2036 6.92989 26.5061 7.47107 26.5061H20.474V39.509C20.474 40.1372 20.8798 40.6932 21.4779 40.885C22.076 41.0766 22.7294 40.8599 23.0945 40.3487L37.5423 20.122C37.8567 19.6816 37.8988 19.1024 37.6512 18.6211C37.4036 18.1399 36.9077 17.8375 36.3665 17.8375H23.3636V4.83451ZM23.3636 20.727V35.0008L33.559 20.727H23.3636ZM20.474 23.6166V9.34289L10.2786 23.6166H20.474Z" fill="#151515"/>
</svg>
