<svg width="45" height="44" viewBox="0 0 45 44" fill="none" xmlns="http://www.w3.org/2000/svg">
<path d="M22.4406 43.3429C10.7952 43.3429 0.919675 33.5071 0.828917 21.788C0.808665 18.961 1.34976 16.158 2.42083 13.5417C3.49191 10.9254 5.07165 8.54765 7.0685 6.54639C9.07848 4.48776 11.4774 2.849 14.1261 1.72529C16.7747 0.60157 19.6202 0.01529 22.4973 0.000496776C25.3224 -0.00201953 28.1201 0.554523 30.7291 1.63806C33.3382 2.72159 35.707 4.3107 37.6992 6.31382C39.7246 8.28821 41.3393 10.6439 42.4501 13.2452C43.5609 15.8465 44.1459 18.6419 44.1713 21.4703C44.1971 27.2243 41.9445 32.7546 37.9057 36.8529C33.8668 40.9512 28.3701 43.2845 22.6164 43.3429H22.4406ZM22.5086 1.13497C19.7822 1.15094 17.0861 1.70821 14.5768 2.77445C12.0675 3.84069 9.79495 5.39466 7.89099 7.34619C5.99715 9.23955 4.49801 11.49 3.48048 13.9671C2.46296 16.4443 1.94729 19.0987 1.96339 21.7766C2.04847 32.8831 11.4078 42.1971 22.4349 42.1971H22.5824C28.0382 42.1476 33.2525 39.9402 37.0854 36.0573C40.9183 32.1744 43.0581 26.932 43.0369 21.476C43.0114 18.7964 42.456 16.1484 41.4026 13.6844C40.3493 11.2204 38.8188 8.9892 36.8994 7.11929C35.016 5.21921 32.7742 3.71185 30.3039 2.6846C27.8336 1.65734 25.184 1.13062 22.5086 1.13497Z" fill="#F1592A"/>
<path d="M5.69006 28.0105V15.3499H8.77015V16.4843H7.13651V26.8988H8.77015V28.0332L5.69006 28.0105Z" fill="#F1592A"/>
<path d="M16.1442 21.5554C16.1442 23.864 14.7431 25.18 12.8429 25.18C10.9427 25.18 9.67773 23.6995 9.67773 21.6745C9.67773 19.5587 11.0051 18.0669 12.945 18.0669C14.8849 18.0669 16.1442 19.6211 16.1442 21.5554ZM11.0051 21.6575C11.0051 23.0586 11.7084 24.1703 12.9166 24.1703C14.1249 24.1703 14.8169 23.0359 14.8169 21.6064C14.8169 20.3075 14.1759 19.0822 12.9166 19.0822C11.6574 19.0822 10.9937 20.2678 10.9937 21.6859L11.0051 21.6575Z" fill="#F1592A"/>
<path d="M17.2107 18.3053C17.8139 18.2012 18.4251 18.1499 19.0372 18.1522C19.7248 18.085 20.416 18.2379 21.0112 18.5889C21.2343 18.7203 21.4182 18.909 21.5439 19.1354C21.6695 19.3618 21.7324 19.6177 21.7259 19.8766C21.7177 20.2129 21.6037 20.5382 21.4 20.806C21.1963 21.0739 20.9134 21.2706 20.5914 21.3684C20.9838 21.4482 21.3365 21.6612 21.5898 21.9714C21.8431 22.2815 21.9813 22.6697 21.9811 23.0701C21.9854 23.3413 21.9279 23.61 21.8129 23.8557C21.6979 24.1014 21.5285 24.3177 21.3175 24.4882C20.8297 24.9193 20.0185 25.1292 18.7649 25.1292C18.2492 25.1317 17.7339 25.1014 17.222 25.0384L17.2107 18.3053ZM18.4586 21.0224H19.0996C19.9675 21.0224 20.4553 20.614 20.4553 20.0297C20.4553 19.4455 19.9675 19.0881 19.1677 19.0881C18.9283 19.0799 18.6887 19.097 18.4529 19.1392L18.4586 21.0224ZM18.4586 24.1875C18.6791 24.2103 18.9007 24.2198 19.1223 24.2159C19.9277 24.2159 20.6425 23.9096 20.6425 23.0814C20.6425 22.2533 19.9504 21.947 19.0826 21.947H18.4586V24.1875Z" fill="#F1592A"/>
<path d="M24.4599 18.2144H25.7135V22.6898C25.7135 24.5901 24.7945 25.2254 23.4445 25.2254C23.0835 25.2224 22.7253 25.1611 22.3838 25.0439L22.5369 24.0342C22.7887 24.1128 23.0504 24.1548 23.3141 24.159C24.0288 24.159 24.4485 23.83 24.4485 22.6388L24.4599 18.2144Z" fill="#F1592A"/>
<path d="M29.2814 21.9412V22.809H26.6721V21.9412H29.2814Z" fill="#F1592A"/>
<path d="M35.3735 24.8908C34.8095 25.1157 34.2048 25.22 33.598 25.1971C31.4142 25.1971 30.0869 23.8301 30.0869 21.737C30.0611 21.2493 30.1388 20.7617 30.3149 20.3062C30.491 19.8507 30.7616 19.4376 31.1088 19.0942C31.456 18.7507 31.872 18.4847 32.3294 18.3135C32.7867 18.1423 33.2752 18.0699 33.7625 18.101C34.3454 18.0769 34.9264 18.1815 35.4643 18.4073L35.1863 19.4057C34.7597 19.2241 34.2999 19.1333 33.8363 19.1391C32.4352 19.1391 31.4255 20.0183 31.4255 21.6746C31.4255 23.1834 32.3161 24.1591 33.8249 24.1591C34.2931 24.1658 34.7578 24.0791 35.192 23.9038L35.3735 24.8908Z" fill="#F1592A"/>
<path d="M39.3101 15.3159V28.0106H36.23V26.8762H37.8636V16.4504H36.23V15.3159H39.3101Z" fill="#F1592A"/>
</svg>
