<svg width="44" height="44" viewBox="0 0 44 44" fill="none" xmlns="http://www.w3.org/2000/svg">
<g clip-path="url(#clip0_2059_729)">
<path d="M0.666016 0.535156H44.0092V43.8783H0.666016V0.535156Z" fill="#F7DF1E"/>
<path d="M12.0626 36.7558L15.3795 34.7485C16.0194 35.8831 16.6015 36.843 17.9978 36.843C19.3362 36.843 20.18 36.3195 20.18 34.283V20.4338H24.2531V34.3406C24.2531 38.5593 21.7802 40.4796 18.1724 40.4796C14.914 40.4796 13.0226 38.792 12.0625 36.7555" fill="black"/>
<path d="M26.4656 36.3194L29.7821 34.3991C30.6551 35.8249 31.7898 36.8722 33.7972 36.8722C35.4849 36.8722 36.5612 36.0284 36.5612 34.8646C36.5612 33.4681 35.4556 32.9734 33.5935 32.159L32.5755 31.7223C29.6368 30.4715 27.6874 28.9004 27.6874 25.5835C27.6874 22.5286 30.0149 20.2009 33.6519 20.2009C36.2413 20.2009 38.1034 21.1029 39.4416 23.4596L36.2702 25.4962C35.5719 24.2452 34.8157 23.7507 33.6519 23.7507C32.459 23.7507 31.7025 24.5071 31.7025 25.4962C31.7025 26.7182 32.459 27.2129 34.2045 27.9694L35.2228 28.4058C38.685 29.8897 40.6345 31.4025 40.6345 34.8064C40.6345 38.4726 37.7541 40.4799 33.8846 40.4799C30.1023 40.4799 27.6583 38.6761 26.4656 36.3194Z" fill="black"/>
</g>
<defs>
<clipPath id="clip0_2059_729">
<rect width="43.3432" height="43.3432" fill="white" transform="translate(0.666016 0.535156)"/>
</clipPath>
</defs>
</svg>
