<svg width="215" height="44" viewBox="0 0 215 44" fill="none" xmlns="http://www.w3.org/2000/svg">
<g clip-path="url(#clip0_2059_734)">
<path d="M142.661 0.648926H179.843V7.51174H165.094V43.6161H157.718V7.51174H142.661V0.648926Z" fill="black"/>
<path d="M81.5114 0.648926V7.51174H51.7076V18.5519H75.6758V25.4147H51.7076V36.7533H81.5114V43.6161H44.3327V7.51174H44.3296V0.648926H81.5114Z" fill="black"/>
<path d="M100.077 0.666992H90.426L124.995 43.6341H134.675L117.388 22.1653L134.647 0.699773L124.995 0.714689L112.556 16.1641L100.077 0.666992Z" fill="black"/>
<path d="M109.981 31.3586L105.148 25.3491L90.3983 43.6669H100.077L109.981 31.3586Z" fill="black"/>
<path fill-rule="evenodd" clip-rule="evenodd" d="M44.591 43.6162L9.97508 0.631104H0.75647V43.5982H8.13136V9.8153L35.3263 43.6162H44.591Z" fill="black"/>
<path d="M181.501 43.3536C180.961 43.3536 180.502 43.1665 180.117 42.7923C179.732 42.4181 179.542 41.965 179.547 41.4283C179.542 40.9064 179.732 40.4583 180.117 40.0841C180.502 39.7098 180.961 39.5227 181.501 39.5227C182.021 39.5227 182.475 39.7098 182.86 40.0841C183.25 40.4583 183.445 40.9064 183.45 41.4283C183.445 41.7828 183.355 42.1078 183.175 42.3983C182.99 42.6938 182.755 42.9253 182.46 43.0927C182.17 43.265 181.851 43.3536 181.501 43.3536Z" fill="black"/>
<path d="M194.089 25.2529H197.357V37.8437C197.352 39.0009 197.102 39.9906 196.612 40.8228C196.118 41.655 195.433 42.2901 194.554 42.7382C193.679 43.1813 192.655 43.4079 191.49 43.4079C190.426 43.4079 189.472 43.2159 188.622 42.8416C187.773 42.4674 187.098 41.9061 186.603 41.1675C186.103 40.4288 185.858 39.5081 185.858 38.4051H189.132C189.137 38.8877 189.247 39.3061 189.456 39.6558C189.666 40.0054 189.956 40.2712 190.326 40.4584C190.7 40.6455 191.131 40.7391 191.615 40.7391C192.14 40.7391 192.59 40.6307 192.954 40.4091C193.319 40.1925 193.599 39.8675 193.794 39.4342C193.984 39.0058 194.084 38.474 194.089 37.8437V25.2529Z" fill="black"/>
<path d="M210.804 30.177C210.724 29.4138 210.374 28.818 209.764 28.3945C209.149 27.9662 208.355 27.7544 207.38 27.7544C206.696 27.7544 206.107 27.8578 205.617 28.0597C205.127 28.2665 204.747 28.5422 204.487 28.8919C204.228 29.2415 204.098 29.6403 204.087 30.0885C204.087 30.4627 204.177 30.7876 204.352 31.0585C204.527 31.3342 204.762 31.5656 205.067 31.7528C205.367 31.9448 205.701 32.1023 206.067 32.2304C206.436 32.3584 206.806 32.4667 207.176 32.5554L208.88 32.9739C209.564 33.1315 210.229 33.3433 210.864 33.614C211.498 33.8799 212.073 34.2197 212.577 34.6284C213.082 35.0371 213.482 35.5295 213.777 36.1056C214.072 36.6817 214.222 37.3563 214.222 38.1343C214.222 39.1831 213.952 40.1039 213.407 40.9016C212.862 41.6943 212.078 42.3148 211.048 42.7629C210.024 43.2061 208.785 43.4326 207.326 43.4326C205.917 43.4326 204.687 43.216 203.653 42.7826C202.614 42.3542 201.804 41.7239 201.219 40.8967C200.635 40.0695 200.32 39.06 200.275 37.8733H203.513C203.558 38.4937 203.758 39.0108 204.098 39.4293C204.442 39.8429 204.892 40.1482 205.442 40.355C205.997 40.5569 206.616 40.6603 207.301 40.6603C208.015 40.6603 208.645 40.552 209.19 40.3402C209.729 40.1285 210.154 39.8331 210.459 39.4491C210.769 39.0699 210.924 38.6218 210.929 38.1097C210.924 37.6419 210.783 37.2529 210.514 36.9476C210.239 36.6423 209.859 36.3863 209.374 36.1795C208.885 35.9727 208.315 35.7855 207.665 35.623L205.597 35.1011C204.103 34.7219 202.918 34.1459 202.054 33.3728C201.185 32.5997 200.754 31.5755 200.754 30.2903C200.754 29.2366 201.044 28.3109 201.629 27.5181C202.209 26.7253 203.003 26.1098 204.008 25.6716C205.017 25.2284 206.157 25.0117 207.425 25.0117C208.715 25.0117 209.844 25.2284 210.819 25.6716C211.793 26.1098 212.558 26.7204 213.112 27.4984C213.667 28.2764 213.957 29.1676 213.972 30.177H210.804Z" fill="black"/>
</g>
<defs>
<clipPath id="clip0_2059_734">
<rect width="213.465" height="43.3432" fill="white" transform="translate(0.75647 0.631104)"/>
</clipPath>
</defs>
</svg>
