<svg width="44" height="44" viewBox="0 0 44 44" fill="none" xmlns="http://www.w3.org/2000/svg">
<g clip-path="url(#clip0_2059_700)">
<path d="M21.6752 25.4928C23.8088 25.4928 25.5384 23.782 25.5384 21.6716C25.5384 19.5612 23.8088 17.8503 21.6752 17.8503C19.5416 17.8503 17.812 19.5612 17.812 21.6716C17.812 23.782 19.5416 25.4928 21.6752 25.4928Z" fill="#61DAFB"/>
<path d="M21.6753 29.5003C33.1238 29.5003 42.4046 25.9952 42.4046 21.6714C42.4046 17.3476 33.1238 13.8425 21.6753 13.8425C10.2268 13.8425 0.945923 17.3476 0.945923 21.6714C0.945923 25.9952 10.2268 29.5003 21.6753 29.5003Z" stroke="#61DAFB" stroke-width="0.866863"/>
<path d="M14.8208 25.586C20.5451 35.393 28.2543 41.5906 32.0399 39.4287C35.8255 37.2669 34.254 27.5642 28.5297 17.7571C22.8055 7.95015 15.0962 1.75255 11.3106 3.91444C7.52498 6.07632 9.09656 15.779 14.8208 25.586Z" stroke="#61DAFB" stroke-width="0.866863"/>
<path d="M14.821 17.7569C9.0967 27.5639 7.52512 37.2666 11.3107 39.4285C15.0963 41.5904 22.8056 35.3928 28.5299 25.5858C34.2541 15.7788 35.8257 6.07606 32.0401 3.91418C28.2545 1.75229 20.5452 7.94989 14.821 17.7569Z" stroke="#61DAFB" stroke-width="0.866863"/>
</g>
<defs>
<clipPath id="clip0_2059_700">
<rect width="43.3432" height="43.3432" fill="white" transform="translate(0.00366211)"/>
</clipPath>
</defs>
</svg>
