<svg width="49" height="44" viewBox="0 0 49 44" fill="none" xmlns="http://www.w3.org/2000/svg">
<path fill-rule="evenodd" clip-rule="evenodd" d="M14.321 0C13.0089 0.00278992 11.7245 0.749595 11.0639 1.88887L0.790657 19.7827C0.140419 20.925 0.140419 22.4181 0.790657 23.5605L11.0639 41.4543C11.7245 42.5936 13.0089 43.3406 14.321 43.3432H34.8675C36.1796 43.3404 37.4639 42.5936 38.1245 41.4543L48.3978 23.5605C49.048 22.4181 49.048 20.925 48.3978 19.7827L38.1245 1.88887C37.4639 0.749595 36.1796 0.00258068 34.8675 0H14.321ZM14.5074 10.4681C14.5357 10.4653 14.5653 10.4653 14.5936 10.4681H18.1375C18.2944 10.4714 18.4466 10.5623 18.5249 10.6988L24.5368 21.4409C24.5671 21.494 24.5866 21.5532 24.594 21.6139C24.6014 21.5532 24.6209 21.494 24.6511 21.4409L30.6487 10.6988C30.7295 10.5581 30.8888 10.4667 31.0504 10.4681H34.5943C34.9081 10.4709 35.1432 10.8672 34.9961 11.1458L29.1278 21.6716L34.9961 32.183C35.1571 32.4631 34.9163 32.8778 34.5943 32.8751H31.0504C30.886 32.8737 30.7257 32.7759 30.6487 32.6299L24.6511 21.8879C24.6209 21.8348 24.6014 21.7756 24.594 21.7148C24.5866 21.7756 24.5671 21.8348 24.5368 21.8879L18.5249 32.6299C18.4502 32.7718 18.2972 32.8686 18.1375 32.8751H14.5936C14.2716 32.8779 14.0309 32.4631 14.1919 32.183L20.0602 21.6716L14.1919 11.1458C14.0512 10.8916 14.2228 10.5224 14.5074 10.4681Z" fill="#3498DB"/>
</svg>
