<svg width="29" height="44" viewBox="0 0 29 44" fill="none" xmlns="http://www.w3.org/2000/svg">
<g clip-path="url(#clip0_2059_717)">
<path d="M14.5 22.2067C14.5 18.2578 17.7013 15.0564 21.6503 15.0564C25.5993 15.0564 28.8006 18.2578 28.8006 22.2067C28.8006 26.1558 25.5993 29.357 21.6503 29.357C17.7013 29.357 14.5 26.1558 14.5 22.2067Z" fill="#1ABCFE"/>
<path d="M0.199341 36.5073C0.199341 32.5583 3.40064 29.3569 7.34966 29.3569H14.5V36.5073C14.5 40.4563 11.2987 43.6576 7.34966 43.6576C3.40064 43.6576 0.199341 40.4563 0.199341 36.5073Z" fill="#0ACF83"/>
<path d="M14.5 0.755859V15.0565H21.6503C25.5994 15.0565 28.8006 11.8552 28.8006 7.90617C28.8006 3.95717 25.5994 0.755859 21.6503 0.755859H14.5Z" fill="#FF7262"/>
<path d="M0.199341 7.90618C0.199341 11.8552 3.40064 15.0565 7.34966 15.0565H14.5V0.755859H7.34966C3.40064 0.755859 0.199341 3.95716 0.199341 7.90618Z" fill="#F24E1E"/>
<path d="M0.199341 22.2067C0.199341 26.1558 3.40064 29.357 7.34966 29.357H14.5V15.0564H7.34966C3.40064 15.0564 0.199341 18.2578 0.199341 22.2067Z" fill="#A259FF"/>
</g>
<defs>
<clipPath id="clip0_2059_717">
<rect width="28.8954" height="43.3432" fill="white" transform="translate(0.0522461 0.535156)"/>
</clipPath>
</defs>
</svg>
