<svg width="142" height="167" viewBox="0 0 142 167" fill="none" xmlns="http://www.w3.org/2000/svg">
<g opacity="0.2">
<path d="M133.475 44.2575V33.802H130.644V25.0611H119.862V12.4204H118.244V6.77241H95.9537V3.20885H85.7055C84.0818 1.36678 78.1154 0 71 0C63.8845 0 57.9182 1.36687 56.2945 3.20885H46.0463V6.77241H23.7557V12.4204H22.1383V25.0611H11.3555V33.802H8.5251V44.2575H0V47.4344L1.79434 49.6029L6.92192 55.7802L6.87305 56.9632L5.68886 85.6142H3.47463V86.7763L5.55399 88.8603L2.32502 167H53.0712V99.7156L53.7243 97.0937V96.0615L53.5391 95.6552C55.3805 88.1663 62.4962 82.5831 70.9999 82.5831C79.5036 82.5831 86.6193 88.1663 88.4606 95.6553L88.2754 96.0615V97.0937L88.9285 99.7156V167H100.048H139.675L136.445 88.8603L138.525 86.7763V85.6142H136.311L135.078 55.7802L140.205 49.6029L142 47.4344V44.2575H133.475Z" fill="#FEE9CB"/>
<path d="M49.0279 90.2683V90.2733L49.6068 88.1889L49.0279 90.2683Z" fill="#824B33"/>
<path d="M88.9285 99.7156V167L92.9721 167V90.2732L88.9285 99.7156Z" fill="#824B33"/>
<path d="M49.0279 90.2733V167L53.0712 167V99.7156L49.0279 90.2733Z" fill="#824B33"/>
<path d="M92.9721 90.2732L92.9721 90.2685L92.3932 88.1882L92.9721 90.2732Z" fill="#824B33"/>
<path d="M92.393 87.0279V87.0256H92.9273C92.6725 82.8207 91.229 78.9382 88.9287 75.7027C88.414 74.9786 87.8612 74.2832 87.2643 73.6279C86.7914 73.1088 86.294 72.6125 85.7737 72.1407C85.2534 71.669 84.7103 71.2218 84.1464 70.8009C83.8643 70.5905 83.5771 70.3867 83.2849 70.1898C82.7005 69.7958 82.096 69.4292 81.4733 69.0917C81.1619 68.9229 80.846 68.7616 80.5259 68.6076C77.6441 67.2222 74.413 66.4459 71.0001 66.4459C68.3455 66.4459 65.801 66.9155 63.4453 67.7761C61.4261 68.5138 59.5457 69.5386 57.8537 70.801C57.2898 71.2219 56.7467 71.6691 56.2264 72.1408C55.9663 72.3767 55.7118 72.6187 55.4634 72.8667C54.9663 73.3626 54.493 73.8821 54.0452 74.4235C51.1777 77.8902 49.362 82.2525 49.0728 87.0257H49.607V87.0279L53.5391 95.6552C55.3805 88.1663 62.4962 82.5831 70.9999 82.5831C79.5036 82.5831 86.6193 88.1663 88.4606 95.6553L92.393 87.0279Z" fill="#824B33"/>
<path d="M41.9516 58.7809L42.6593 59.2851V57.621L41.9516 56.9633L6.87305 56.9632L6.79802 58.7809H41.9516Z" fill="#E5C9AF"/>
<path d="M100.048 56.9633L99.3408 57.621V59.2851L100.048 58.7809H135.202L135.127 56.9633H100.048Z" fill="#E5C9AF"/>
<path d="M42.6593 87.0256H41.9516H37.2006L36.8392 87.3283L36.8427 88.1875H49.6068L49.607 87.0257L42.6593 87.0256Z" fill="#FCF0E2"/>
<path d="M92.393 87.0256V87.0279L92.3932 88.1882L105.157 88.1875L105.161 87.3283L104.799 87.0256H100.048H99.3408L92.393 87.0256Z" fill="#FCF0E2"/>
<path d="M106.99 85.6142H105.167H104.506L104.502 86.7763H138.525V85.6142L106.99 85.6142Z" fill="#FCF0E2"/>
<path d="M37.4983 86.7763L37.4936 85.6142H36.833H35.0102L5.68886 85.6142H3.47463V86.7763H37.4983Z" fill="#FCF0E2"/>
<path d="M104.502 116.351H134.239V115.189H106.99H105.046H104.506L104.502 116.351Z" fill="#FCF0E2"/>
<path d="M41.9516 58.7809L41.9516 87.0256H42.6593V59.2851L41.9516 58.7809Z" fill="#C9A07C"/>
<path d="M35.0102 77.7756L35.0102 85.6142H36.833L36.8106 80.1624L35.0102 77.7756Z" fill="#C9A07C"/>
<path d="M25.9669 75.87C30.195 74.9113 32.8436 70.7144 31.8828 66.496C30.9219 62.2775 26.7154 59.6349 22.4873 60.5936C18.2592 61.5523 15.6106 65.7492 16.5715 69.9676C17.5324 74.1861 21.7388 76.8286 25.9669 75.87Z" fill="#C9A07C"/>
<path d="M24.459 75.2754C28.4983 75.1479 31.6692 71.7777 31.5415 67.7478C31.4138 63.7178 28.0358 60.5542 23.9965 60.6816C19.9573 60.809 16.7864 64.1792 16.9141 68.2092C17.0418 72.2391 20.4197 75.4028 24.459 75.2754Z" fill="#FEE9CB"/>
<path d="M27.4618 73.9676C30.8376 72.1844 32.1254 68.0086 30.3382 64.6405C28.551 61.2724 24.3655 59.9875 20.9897 61.7706C17.6139 63.5538 16.326 67.7297 18.1133 71.0977C19.9005 74.4658 24.086 75.7507 27.4618 73.9676Z" fill="#C9A07C"/>
<path d="M99.3408 59.2851V87.0256H100.048V58.7809L99.3408 59.2851Z" fill="#C9A07C"/>
<path d="M105.189 80.1624L105.167 85.6142H106.99V77.7756L105.189 80.1624Z" fill="#C9A07C"/>
<path d="M0 47.4344L1.79434 49.6029L6.92192 55.7802L7.17726 49.6028H41.9516L41.9516 56.9633L42.6593 57.621L42.6592 49.6028H99.3408V57.621L100.048 56.9633V49.6028H134.823L135.078 55.7802L140.205 49.6029L142 47.4344H0Z" fill="#C9A07C"/>
<path d="M123.323 73.7755C126.389 70.7165 126.389 65.7568 123.323 62.6977C120.256 59.6387 115.285 59.6387 112.219 62.6977C109.153 65.7568 109.153 70.7165 112.219 73.7755C115.285 76.8345 120.256 76.8345 123.323 73.7755Z" fill="#C9A07C"/>
<path d="M118.485 75.2462C122.507 74.849 125.444 71.2746 125.046 67.2624C124.648 63.2501 121.065 60.3196 117.044 60.7167C113.022 61.1138 110.085 64.6883 110.483 68.7006C110.881 72.7128 114.464 75.6433 118.485 75.2462Z" fill="#FEE9CB"/>
<path d="M122.661 72.7428C125.362 70.0481 125.362 65.6791 122.661 62.9844C119.96 60.2897 115.581 60.2897 112.881 62.9844C110.18 65.6791 110.18 70.0481 112.881 72.7428C115.581 75.4375 119.96 75.4375 122.661 72.7428Z" fill="#C9A07C"/>
<path d="M122.225 71.9346C124.685 69.4803 124.685 65.501 122.225 63.0466C119.765 60.5922 115.777 60.5922 113.317 63.0466C110.857 65.501 110.857 69.4803 113.317 71.9346C115.777 74.389 119.765 74.389 122.225 71.9346Z" fill="#FEE9CB"/>
<path d="M48.2015 22.0645C50.0412 20.2289 50.0412 17.253 48.2015 15.4175C46.3618 13.582 43.379 13.582 41.5393 15.4175C39.6995 17.253 39.6995 20.2289 41.5393 22.0645C43.379 23.9 46.3618 23.9 48.2015 22.0645Z" fill="#C9A07C"/>
<path d="M49.0956 19.215C49.4987 16.8852 47.9325 14.6705 45.5974 14.2684C43.2623 13.8662 41.0426 15.4288 40.6395 17.7586C40.2364 20.0884 41.8026 22.3031 44.1377 22.7053C46.4728 23.1074 48.6925 21.5448 49.0956 19.215Z" fill="#FEE9CB"/>
<path d="M99.6105 22.7444C101.824 21.3798 102.509 18.4834 101.142 16.2751C99.7738 14.0669 96.8708 13.383 94.6575 14.7476C92.4441 16.1122 91.7586 19.0086 93.1264 21.2169C94.4942 23.4252 97.3972 24.1091 99.6105 22.7444Z" fill="#C9A07C"/>
<path d="M100.777 20.7303C102.023 18.7189 101.398 16.0809 99.3824 14.838C97.3664 13.595 94.7223 14.2179 93.4765 16.2293C92.2308 18.2406 92.8551 20.8787 94.871 22.1216C96.887 23.3645 99.5311 22.7416 100.777 20.7303Z" fill="#FEE9CB"/>
<path d="M49.6068 88.1889L49.6068 88.1875H36.8427L36.8392 87.3283L37.2006 87.0256L37.4983 86.7763H3.47463L5.55399 88.8603H35.0102V115.189H36.9543L36.8519 90.2287L36.8521 90.2716H41.9516V167H42.6593V90.2716H49.0269L49.0279 90.2683L49.6068 88.1889Z" fill="#C9A07C"/>
<path d="M49.0279 90.2733L53.0712 99.7156L53.7243 97.0937L49.6068 88.1889L49.0279 90.2733Z" fill="#C9A07C"/>
<path d="M88.2754 97.0937L88.9285 99.7156L92.9721 90.2732L92.3932 88.1882L88.2754 97.0937Z" fill="#C9A07C"/>
<path d="M104.799 87.0256L105.161 87.3283L105.157 88.1875L92.3932 88.1882L92.9721 90.2685L92.973 90.2716H99.3408V167H100.048L100.048 90.2716H105.148L105.149 90.0964L105.046 115.189H106.99L106.99 88.8602L136.445 88.8603L138.525 86.7763H104.502L104.799 87.0256Z" fill="#C9A07C"/>
<path d="M105.039 116.802L104.833 167H106.99V118.435L132.292 118.436L134.239 116.351H104.502L105.039 116.802Z" fill="#C9A07C"/>
<path d="M7.7609 116.351L9.70829 118.436H35.0102V167H37.1668L36.9609 116.802L37.4983 116.351H7.7609Z" fill="#C9A07C"/>
<path d="M28.6808 71.934C31.1408 69.4797 31.1408 65.5004 28.6808 63.046C26.2208 60.5916 22.2324 60.5916 19.7724 63.046C17.3124 65.5004 17.3124 69.4797 19.7724 71.934C22.2324 74.3884 26.2208 74.3884 28.6808 71.934Z" fill="#FEE9CB"/>
<path d="M7.7609 115.189V116.351H37.4983L37.4936 115.189L36.9543 115.189H35.0102L7.7609 115.189Z" fill="#FCF0E2"/>
<path d="M124.689 33.9709H17.3114C17.2179 33.9709 17.1421 33.8953 17.1421 33.802C17.1421 33.7087 17.2179 33.633 17.3114 33.633H124.689C124.782 33.633 124.858 33.7087 124.858 33.802C124.858 33.8953 124.782 33.9709 124.689 33.9709Z" fill="#362A26"/>
<path d="M130.644 44.4264H11.3556C11.2621 44.4264 11.1863 44.3507 11.1863 44.2575C11.1863 44.1642 11.2621 44.0885 11.3556 44.0885H130.644C130.738 44.0885 130.814 44.1642 130.814 44.2575C130.814 44.3507 130.738 44.4264 130.644 44.4264Z" fill="#362A26"/>
<path d="M115.9 25.23H26.1001C26.0066 25.23 25.9307 25.1543 25.9307 25.0611C25.9307 24.9678 26.0066 24.8921 26.1001 24.8921H115.9C115.993 24.8921 116.069 24.9678 116.069 25.0611C116.069 25.1543 115.993 25.23 115.9 25.23Z" fill="#362A26"/>
<path d="M111.178 12.5895H30.8216C30.7281 12.5895 30.6523 12.5138 30.6523 12.4205C30.6523 12.3272 30.7281 12.2515 30.8216 12.2515H111.178C111.272 12.2515 111.348 12.3272 111.348 12.4205C111.348 12.5138 111.272 12.5895 111.178 12.5895Z" fill="#362A26"/>
<path d="M92.0513 6.94138H49.9487C49.8551 6.94138 49.7793 6.8657 49.7793 6.77242C49.7793 6.67913 49.8551 6.60345 49.9487 6.60345H92.0513C92.1448 6.60345 92.2207 6.67913 92.2207 6.77242C92.2207 6.86579 92.1448 6.94138 92.0513 6.94138Z" fill="#362A26"/>
<path d="M126.201 77.9443H108.742C108.649 77.9443 108.573 77.8687 108.573 77.7754C108.573 77.6821 108.649 77.6064 108.742 77.6064H126.201C126.295 77.6064 126.37 77.6821 126.37 77.7754C126.37 77.8687 126.295 77.9443 126.201 77.9443Z" fill="#362A26"/>
<path d="M130.667 84.9082C130.578 84.9082 130.503 84.8382 130.498 84.748L130.138 77.7842C130.133 77.6909 130.205 77.6115 130.299 77.6067C130.392 77.6025 130.472 77.6733 130.476 77.7666L130.837 84.7304C130.841 84.8237 130.769 84.903 130.676 84.9079L130.667 84.9082Z" fill="#362A26"/>
<path d="M132.197 114.508C132.108 114.508 132.033 114.438 132.028 114.348L130.767 89.9431C130.762 89.8498 130.834 89.7704 130.927 89.7656C131.02 89.7592 131.1 89.8322 131.105 89.9255L132.367 114.33C132.372 114.423 132.3 114.503 132.206 114.508L132.197 114.508Z" fill="#362A26"/>
<path d="M134.824 165.305C134.734 165.305 134.659 165.235 134.655 165.145L132.297 119.543C132.292 119.45 132.364 119.371 132.457 119.366C132.555 119.359 132.631 119.433 132.635 119.526L134.993 165.128C134.998 165.221 134.926 165.3 134.833 165.305L134.824 165.305Z" fill="#362A26"/>
<path d="M108.742 114.508C108.649 114.508 108.573 114.432 108.573 114.339V89.9342C108.573 89.8409 108.649 89.7653 108.742 89.7653C108.836 89.7653 108.911 89.8409 108.911 89.9342V114.339C108.911 114.432 108.836 114.508 108.742 114.508Z" fill="#362A26"/>
<path d="M108.742 165.305C108.649 165.305 108.573 165.23 108.573 165.136V119.535C108.573 119.441 108.649 119.366 108.742 119.366C108.836 119.366 108.911 119.441 108.911 119.535V165.136C108.911 165.23 108.836 165.305 108.742 165.305Z" fill="#362A26"/>
<path d="M132.599 55.1971H101.843C101.75 55.1971 101.674 55.1215 101.674 55.0282C101.674 54.9349 101.75 54.8592 101.843 54.8592H132.599C132.692 54.8592 132.768 54.9349 132.768 55.0282C132.768 55.1215 132.692 55.1971 132.599 55.1971Z" fill="#362A26"/>
<path d="M123.181 67.6591C123.087 67.6591 123.012 67.5834 123.012 67.4901C123.012 64.6078 120.661 62.2629 117.772 62.2629C117.679 62.2629 117.603 62.1872 117.603 62.0939C117.603 62.0007 117.679 61.925 117.772 61.925C120.848 61.925 123.35 64.4214 123.35 67.4901C123.35 67.5835 123.274 67.6591 123.181 67.6591Z" fill="#362A26"/>
<path d="M96.4776 84.9082C96.3841 84.9082 96.3083 84.8325 96.3083 84.7392V61.2053C96.3083 61.112 96.3841 61.0363 96.4776 61.0363C96.5711 61.0363 96.647 61.112 96.647 61.2053V84.7392C96.647 84.8324 96.5711 84.9082 96.4776 84.9082Z" fill="#362A26"/>
<path d="M33.2896 77.9443H15.8305C15.737 77.9443 15.6612 77.8687 15.6612 77.7754C15.6612 77.6821 15.737 77.6064 15.8305 77.6064H33.2896C33.3831 77.6064 33.4589 77.6821 33.4589 77.7754C33.4589 77.8687 33.3831 77.9443 33.2896 77.9443Z" fill="#362A26"/>
<path d="M11.3644 84.9082L11.3554 84.9079C11.262 84.9031 11.1903 84.8236 11.1951 84.7303L11.5551 77.7666C11.5599 77.6733 11.6413 77.6018 11.7331 77.6066C11.8264 77.6115 11.8982 77.6909 11.8934 77.7842L11.5333 84.748C11.5287 84.8382 11.4539 84.9082 11.3644 84.9082Z" fill="#362A26"/>
<path d="M9.8342 114.508L9.82514 114.508C9.73191 114.503 9.66005 114.423 9.66485 114.33L10.9265 89.9254C10.9313 89.8321 11.013 89.7584 11.1045 89.7655C11.1978 89.7704 11.2696 89.8497 11.2648 89.943L10.0031 114.348C9.99848 114.438 9.92371 114.508 9.8342 114.508Z" fill="#362A26"/>
<path d="M7.20814 165.305L7.19908 165.305C7.10576 165.3 7.03399 165.221 7.03878 165.128L9.3963 119.526C9.40109 119.433 9.48491 119.358 9.57425 119.366C9.66757 119.371 9.73943 119.45 9.73454 119.543L7.37703 165.145C7.37242 165.235 7.29756 165.305 7.20814 165.305Z" fill="#362A26"/>
<path d="M33.2896 114.508C33.1961 114.508 33.1202 114.432 33.1202 114.339V89.9342C33.1202 89.8409 33.1961 89.7653 33.2896 89.7653C33.3831 89.7653 33.4589 89.8409 33.4589 89.9342V114.339C33.4589 114.432 33.3831 114.508 33.2896 114.508Z" fill="#362A26"/>
<path d="M33.2896 165.305C33.1961 165.305 33.1202 165.23 33.1202 165.136V119.535C33.1202 119.441 33.1961 119.366 33.2896 119.366C33.3831 119.366 33.4589 119.441 33.4589 119.535V165.136C33.4589 165.23 33.3831 165.305 33.2896 165.305Z" fill="#362A26"/>
<path d="M40.1887 55.1971H9.43296C9.33946 55.1971 9.26361 55.1215 9.26361 55.0282C9.26361 54.9349 9.33946 54.8592 9.43296 54.8592H40.1888C40.2823 54.8592 40.3581 54.9349 40.3581 55.0282C40.358 55.1215 40.2822 55.1971 40.1887 55.1971Z" fill="#362A26"/>
<path d="M18.8507 67.6591C18.7572 67.6591 18.6813 67.5834 18.6813 67.4901C18.6813 64.4215 21.1835 61.925 24.2592 61.925C24.3527 61.925 24.4286 62.0007 24.4286 62.0939C24.4286 62.1872 24.3527 62.2629 24.2592 62.2629C21.3703 62.2629 19.02 64.6078 19.02 67.4901C19.02 67.5835 18.9442 67.6591 18.8507 67.6591Z" fill="#362A26"/>
<path d="M45.554 84.9082C45.4605 84.9082 45.3846 84.8325 45.3846 84.7392V61.2053C45.3846 61.112 45.4605 61.0363 45.554 61.0363C45.6475 61.0363 45.7233 61.112 45.7233 61.2053V84.7392C45.7233 84.8324 45.6475 84.9082 45.554 84.9082Z" fill="#362A26"/>
</g>
</svg>
